<?xml version="1.0" encoding="UTF-8" standalone="no"?>
<!-- Created with Inkscape (http://www.inkscape.org/) -->

<svg
   xmlns:dc="http://purl.org/dc/elements/1.1/"
   xmlns:cc="http://creativecommons.org/ns#"
   xmlns:rdf="http://www.w3.org/1999/02/22-rdf-syntax-ns#"
   xmlns:svg="http://www.w3.org/2000/svg"
   xmlns="http://www.w3.org/2000/svg"
   xmlns:sodipodi="http://sodipodi.sourceforge.net/DTD/sodipodi-0.dtd"
   xmlns:inkscape="http://www.inkscape.org/namespaces/inkscape"
   inkscape:version="0.92.3 (2405546, 2018-03-11)"
   sodipodi:docname="logo.svg"
   viewBox="0 0 85.333336 85.333336"
   height="85.333336"
   width="85.333336"
   id="svg2"
   version="1.1">
  <title
     id="title875">software logo</title>
  <metadata
     id="metadata8">
    <rdf:RDF>
      <cc:Work
         rdf:about="">
        <dc:format>image/svg+xml</dc:format>
        <dc:type
           rdf:resource="http://purl.org/dc/dcmitype/StillImage" />
        <dc:title>software logo</dc:title>
        <dc:date>2019</dc:date>
        <dc:creator>
          <cc:Agent>
            <dc:title>N-z0</dc:title>
          </cc:Agent>
        </dc:creator>
        <dc:rights>
          <cc:Agent>
            <dc:title>public domain cc0 license</dc:title>
          </cc:Agent>
        </dc:rights>
        <dc:publisher>
          <cc:Agent>
            <dc:title>github.com</dc:title>
          </cc:Agent>
        </dc:publisher>
        <dc:identifier>846597367b33f0301c63ecb54734eebb</dc:identifier>
        <dc:language />
        <dc:subject>
          <rdf:Bag>
            <rdf:li>software logo badge icon</rdf:li>
          </rdf:Bag>
        </dc:subject>
        <dc:coverage>universal</dc:coverage>
        <dc:description>logo icon for lambda software.</dc:description>
        <cc:license
           rdf:resource="http://creativecommons.org/publicdomain/zero/1.0/" />
        <dc:source></dc:source>
      </cc:Work>
      <cc:License
         rdf:about="http://creativecommons.org/publicdomain/zero/1.0/">
        <cc:permits
           rdf:resource="http://creativecommons.org/ns#Reproduction" />
        <cc:permits
           rdf:resource="http://creativecommons.org/ns#Distribution" />
        <cc:permits
           rdf:resource="http://creativecommons.org/ns#DerivativeWorks" />
      </cc:License>
    </rdf:RDF>
  </metadata>
  <defs
     id="defs6" />
  <sodipodi:namedview
     inkscape:current-layer="svg2"
     inkscape:window-maximized="1"
     inkscape:window-y="31"
     inkscape:window-x="0"
     inkscape:cy="57.140362"
     inkscape:cx="-121.33286"
     inkscape:zoom="2.8284271"
     showgrid="false"
     id="namedview4"
     inkscape:window-height="708"
     inkscape:window-width="1366"
     inkscape:pageshadow="2"
     inkscape:pageopacity="0"
     guidetolerance="10"
     gridtolerance="10"
     objecttolerance="10"
     borderopacity="1"
     bordercolor="#666666"
     pagecolor="#ffffff" />
  <path
     style="fill:#bee4fd;stroke-width:1.33333337"
     d="m 22.666667,37.333334 c 0,-3.555556 0.444444,-4 4.000001,-4 3.555556,0 4,0.444444 4,4 0,3.555557 -0.444444,4.000001 -4,4.000001 -3.555557,0 -4.000001,-0.444444 -4.000001,-4.000001 z"
     id="path5153" />
  <path
     style="fill:#f3b6ee;stroke-width:1.33333337"
     d="m 54.666668,58.666668 c 0,-3.555556 0.444444,-4 4,-4 3.555557,0 4.000001,0.444444 4.000001,4 0,3.555557 -0.444444,4.000001 -4.000001,4.000001 -3.555556,0 -4,-0.444444 -4,-4.000001 z"
     id="path5051" />
  <path
     style="fill:#f3b6ee;stroke-width:1.33333337"
     d="m 22.666667,48.000002 c 0,-3.555557 0.444444,-4.000001 4.000001,-4.000001 3.555556,0 4,0.444444 4,4.000001 0,3.555556 -0.444444,4 -4,4 -3.555557,0 -4.000001,-0.444444 -4.000001,-4 z"
     id="path5041" />
  <path
     style="fill:#eafcb0;stroke-width:1.33333337"
     d="m 44.000001,48.000002 c 0,-3.555557 0.444444,-4.000001 4.000001,-4.000001 3.555556,0 4,0.444444 4,4.000001 0,3.555556 -0.444444,4 -4,4 -3.555557,0 -4.000001,-0.444444 -4.000001,-4 z"
     id="path4915" />
  <path
     style="fill:#c4c0fe;stroke-width:1.33333337"
     d="m 44.000001,58.666668 c 0,-3.555556 0.444444,-4 4.000001,-4 3.555556,0 4,0.444444 4,4 0,3.555557 -0.444444,4.000001 -4,4.000001 -3.555557,0 -4.000001,-0.444444 -4.000001,-4.000001 z"
     id="path4805" />
  <path
     style="fill:#fee59d;stroke-width:1.33333337"
     d="m 33.333334,37.333334 c 0,-3.555556 0.444444,-4 4,-4 3.555557,0 4.000001,0.444444 4.000001,4 0,3.555557 -0.444444,4.000001 -4.000001,4.000001 -3.555556,0 -4,-0.444444 -4,-4.000001 z"
     id="path4665" />
  <path
     style="fill:#fc97e3;stroke-width:1.33333337"
     d="m 44.000001,16 c 0,-3.555555 0.444444,-4 4.000001,-4 3.555556,0 4,0.444445 4,4 0,3.555557 -0.444444,4.000001 -4,4.000001 -3.555557,0 -4.000001,-0.444444 -4.000001,-4.000001 z"
     id="path4515" />
  <path
     style="fill:#febeb8;stroke-width:1.33333337"
     d="m 54.666668,26.666668 c 0,-3.555557 0.444444,-4.000001 4,-4.000001 3.555557,0 4.000001,0.444444 4.000001,4.000001 0,3.555556 -0.444444,4 -4.000001,4 -3.555556,0 -4,-0.444444 -4,-4 z"
     id="path4413" />
  <path
     style="fill:#baf8b5;stroke-width:1.33333337"
     d="m 33.333334,26.666668 c 0,-3.555557 0.444444,-4.000001 4,-4.000001 3.555557,0 4.000001,0.444444 4.000001,4.000001 0,3.555556 -0.444444,4 -4.000001,4 -3.555556,0 -4,-0.444444 -4,-4 z"
     id="path4303" />
  <path
     style="fill:#84eaf1;stroke-width:1.33333337"
     d="m 44.000001,26.666668 c 0,-3.555557 0.444444,-4.000001 4.000001,-4.000001 3.555556,0 4,0.444444 4,4.000001 0,3.555556 -0.444444,4 -4,4 -3.555557,0 -4.000001,-0.444444 -4.000001,-4 z"
     id="path4191" />
  <path
     style="fill:#95c5fe;stroke-width:1.33333337"
     d="m 22.666667,58.666668 c 0,-3.555556 0.444444,-4 4.000001,-4 3.555556,0 4,0.444444 4,4 0,3.555557 -0.444444,4.000001 -4,4.000001 -3.555557,0 -4.000001,-0.444444 -4.000001,-4.000001 z"
     id="path4119" />
  <path
     style="fill:#79d0fe;stroke-width:1.33333337"
     d="m 12,26.666668 c 0,-3.555557 0.444445,-4.000001 4,-4.000001 3.555557,0 4.000001,0.444444 4.000001,4.000001 0,3.555556 -0.444444,4 -4.000001,4 -3.555555,0 -4,-0.444444 -4,-4 z"
     id="path3979" />
  <path
     style="fill:#a0a4fe;stroke-width:1.33333337"
     d="m 44.000001,69.333336 c 0,-3.555557 0.444444,-4.000001 4.000001,-4.000001 3.555556,0 4,0.444444 4,4.000001 0,3.555556 -0.444444,4 -4,4 -3.555557,0 -4.000001,-0.444444 -4.000001,-4 z"
     id="path3917" />
  <path
     style="fill:#feb28b;stroke-width:1.33333337"
     d="m 65.333335,48.000002 c 0,-3.555557 0.444444,-4.000001 4.000001,-4.000001 3.555556,0 4,0.444444 4,4.000001 0,3.555556 -0.444444,4 -4,4 -3.555557,0 -4.000001,-0.444444 -4.000001,-4 z"
     id="path3789" />
  <path
     style="fill:#e6ea63;stroke-width:1.33333337"
     d="m 44.000001,37.333334 c 0,-3.555556 0.444444,-4 4.000001,-4 3.555556,0 4,0.444444 4,4 0,3.555557 -0.444444,4.000001 -4,4.000001 -3.555557,0 -4.000001,-0.444444 -4.000001,-4.000001 z"
     id="path3681" />
  <path
     style="fill:#ca74ef;stroke-width:1.33333337"
     d="m 12,58.666668 c 0,-3.555556 0.444445,-4 4,-4 3.555557,0 4.000001,0.444444 4.000001,4 0,3.555557 -0.444444,4.000001 -4.000001,4.000001 -3.555555,0 -4,-0.444444 -4,-4.000001 z"
     id="path3603" />
  <path
     style="fill:#fe8e8a;stroke-width:1.33333337"
     d="m 12,48.000002 c 0,-3.555557 0.444445,-4.000001 4,-4.000001 3.555557,0 4.000001,0.444444 4.000001,4.000001 0,3.555556 -0.444444,4 -4.000001,4 -3.555555,0 -4,-0.444444 -4,-4 z"
     id="path3497" />
  <path
     style="fill:#f4d14f;stroke-width:1.33333337"
     d="m 54.666668,48.000002 c 0,-3.555557 0.444444,-4.000001 4,-4.000001 3.555557,0 4.000001,0.444444 4.000001,4.000001 0,3.555556 -0.444444,4 -4.000001,4 -3.555556,0 -4,-0.444444 -4,-4 z"
     id="path3399" />
  <path
     style="fill:#fcb95b;stroke-width:1.33333337"
     d="m 33.333334,16 c 0,-3.555555 0.444444,-4 4,-4 3.555557,0 4.000001,0.444445 4.000001,4 0,3.555557 -0.444444,4.000001 -4.000001,4.000001 -3.555556,0 -4,-0.444444 -4,-4.000001 z"
     id="path3279" />
  <path
     style="fill:#8dec84;stroke-width:1.33333337"
     d="m 54.666668,37.333334 c 0,-3.555556 0.444444,-4 4,-4 3.555557,0 4.000001,0.444444 4.000001,4 0,3.555557 -0.444444,4.000001 -4.000001,4.000001 -3.555556,0 -4,-0.444444 -4,-4.000001 z"
     id="path3207" />
  <path
     style="fill:#bfe25a;stroke-width:1.33333337"
     d="m 33.333334,48.000002 c 0,-3.555557 0.444444,-4.000001 4,-4.000001 3.555557,0 4.000001,0.444444 4.000001,4.000001 0,3.555556 -0.444444,4 -4.000001,4 -3.555556,0 -4,-0.444444 -4,-4 z"
     id="path3125" />
  <path
     style="fill:#2cd3f8;stroke-width:1.33333337"
     d="m 22.666667,16 c 0,-3.555555 0.444444,-4 4.000001,-4 3.555556,0 4,0.444445 4,4 0,3.555557 -0.444444,4.000001 -4,4.000001 -3.555557,0 -4.000001,-0.444444 -4.000001,-4.000001 z"
     id="path3015" />
  <path
     style="fill:#df5eb6;stroke-width:1.33333337"
     d="m 12,16 c 0,-3.555555 0.444445,-4 4,-4 3.555557,0 4.000001,0.444445 4.000001,4 0,3.555557 -0.444444,4.000001 -4.000001,4.000001 -3.555555,0 -4,-0.444444 -4,-4.000001 z"
     id="path2931" />
  <path
     style="fill:#7a80f9;stroke-width:1.33333337"
     d="m 65.333335,58.666668 c 0,-3.555556 0.444444,-4 4.000001,-4 3.555556,0 4,0.444444 4,4 0,3.555557 -0.444444,4.000001 -4,4.000001 -3.555557,0 -4.000001,-0.444444 -4.000001,-4.000001 z"
     id="path2873" />
  <path
     style="fill:#feb729;stroke-width:1.33333337"
     d="m 33.333334,58.666668 c 0,-3.555556 0.444444,-4 4,-4 3.555557,0 4.000001,0.444444 4.000001,4 0,3.555557 -0.444444,4.000001 -4.000001,4.000001 -3.555556,0 -4,-0.444444 -4,-4.000001 z"
     id="path2793" />
  <path
     style="fill:#7568f8;stroke-width:1.33333337"
     d="m 76.000002,69.333336 c 0,-3.555557 0.444444,-4.000001 4.000001,-4.000001 3.555556,0 4,0.444444 4,4.000001 0,3.555556 -0.444444,4 -4,4 -3.555557,0 -4.000001,-0.444444 -4.000001,-4 z"
     id="path2717" />
  <path
     style="fill:#fc775c;stroke-width:1.33333337"
     d="m 54.666668,69.333336 c 0,-3.555557 0.444444,-4.000001 4,-4.000001 3.555557,0 4.000001,0.444444 4.000001,4.000001 0,3.555556 -0.444444,4 -4.000001,4 -3.555556,0 -4,-0.444444 -4,-4 z"
     id="path2643" />
  <path
     style="fill:#83e760;stroke-width:1.33333337"
     d="m 22.666667,26.666668 c 0,-3.555557 0.444444,-4.000001 4.000001,-4.000001 3.555556,0 4,0.444444 4,4.000001 0,3.555556 -0.444444,4 -4,4 -3.555557,0 -4.000001,-0.444444 -4.000001,-4 z"
     id="path2547" />
  <path
     style="fill:#4194dc;stroke-width:1.33333337"
     d="m 54.666668,16 c 0,-3.555555 0.444444,-4 4,-4 3.555557,0 4.000001,0.444445 4.000001,4 0,3.555557 -0.444444,4.000001 -4.000001,4.000001 -3.555556,0 -4,-0.444444 -4,-4.000001 z"
     id="path2467" />
  <path
     style="fill:#fe941e;stroke-width:1.33333337"
     d="m 12,37.333334 c 0,-3.555556 0.444445,-4 4,-4 3.555557,0 4.000001,0.444444 4.000001,4 0,3.555557 -0.444444,4.000001 -4.000001,4.000001 -3.555555,0 -4,-0.444444 -4,-4.000001 z"
     id="path2409" />
  <path
     style="fill:#903dc1;stroke-width:1.33333337"
     d="m 65.333335,5.3333335 c 0,-3.5555557 0.444444,-4.0000001 4.000001,-4.0000001 3.555556,0 4,0.4444444 4,4.0000001 0,3.5555557 -0.444444,4.0000001 -4,4.0000001 -3.555557,0 -4.000001,-0.4444444 -4.000001,-4.0000001 z"
     id="path2311" />
  <path
     style="fill:#e7652c;stroke-width:1.33333337"
     d="m 65.333335,16 c 0,-3.555555 0.444444,-4 4.000001,-4 3.555556,0 4,0.444445 4,4 0,3.555557 -0.444444,4.000001 -4,4.000001 -3.555557,0 -4.000001,-0.444444 -4.000001,-4.000001 z"
     id="path2259" />
  <path
     style="fill:#5954c8;stroke-width:1.33333337"
     d="m 1.3333334,26.666668 c 0,-3.555557 0.4444444,-4.000001 4.0000001,-4.000001 3.5555557,0 4.0000001,0.444444 4.0000001,4.000001 0,3.555556 -0.4444444,4 -4.0000001,4 -3.5555557,0 -4.0000001,-0.444444 -4.0000001,-4 z"
     id="path2201" />
  <path
     style="fill:#d07b26;stroke-width:1.33333337"
     d="m 33.333334,69.333336 c 0,-3.555557 0.444444,-4.000001 4,-4.000001 3.555557,0 4.000001,0.444444 4.000001,4.000001 0,3.555556 -0.444444,4 -4.000001,4 -3.555556,0 -4,-0.444444 -4,-4 z"
     id="path2155" />
  <path
     style="fill:#f54a30;stroke-width:1.33333337"
     d="m 22.666667,80.000003 c 0,-3.555557 0.444444,-4.000001 4.000001,-4.000001 3.555556,0 4,0.444444 4,4.000001 0,3.555556 -0.444444,4 -4,4 -3.555557,0 -4.000001,-0.444444 -4.000001,-4 z"
     id="path2111" />
  <path
     style="fill:#b7961a;stroke-width:1.33333337"
     d="m 65.333335,37.333334 c 0,-3.555556 0.444444,-4 4.000001,-4 3.555556,0 4,0.444444 4,4 0,3.555557 -0.444444,4.000001 -4,4.000001 -3.555557,0 -4.000001,-0.444444 -4.000001,-4.000001 z"
     id="path2023" />
  <path
     style="fill:#009fc6;stroke-width:1.33333337"
     d="m 12,69.333336 c 0,-3.555557 0.444445,-4.000001 4,-4.000001 3.555557,0 4.000001,0.444444 4.000001,4.000001 0,3.555556 -0.444444,4 -4.000001,4 -3.555555,0 -4,-0.444444 -4,-4 z"
     id="path1981" />
  <path
     style="fill:#3b47dc;stroke-width:1.33333337"
     d="m 76.000002,26.666668 c 0,-3.555557 0.444444,-4.000001 4.000001,-4.000001 3.555556,0 4,0.444444 4,4.000001 0,3.555556 -0.444444,4 -4,4 -3.555557,0 -4.000001,-0.444444 -4.000001,-4 z"
     id="path1907" />
  <path
     style="fill:#95a21e;stroke-width:1.33333337"
     d="m 65.333335,26.666668 c 0,-3.555557 0.444444,-4.000001 4.000001,-4.000001 3.555556,0 4,0.444444 4,4.000001 0,3.555556 -0.444444,4 -4,4 -3.555557,0 -4.000001,-0.444444 -4.000001,-4 z"
     id="path1855" />
  <path
     style="fill:#aa2380;stroke-width:1.33333337"
     d="m 76.000002,48.000002 c 0,-3.555557 0.444444,-4.000001 4.000001,-4.000001 3.555556,0 4,0.444444 4,4.000001 0,3.555556 -0.444444,4 -4,4 -3.555557,0 -4.000001,-0.444444 -4.000001,-4 z"
     id="path1809" />
  <path
     style="fill:#7da51d;stroke-width:1.33333337"
     d="m 22.666667,69.333336 c 0,-3.555557 0.444444,-4.000001 4.000001,-4.000001 3.555556,0 4,0.444444 4,4.000001 0,3.555556 -0.444444,4 -4,4 -3.555557,0 -4.000001,-0.444444 -4.000001,-4 z"
     id="path1769" />
  <path
     style="fill:#2063b8;stroke-width:1.33333337"
     d="m 12,5.3333335 c 0,-3.5555557 0.444445,-4.0000001 4,-4.0000001 3.555557,0 4.000001,0.4444444 4.000001,4.0000001 0,3.5555557 -0.444444,4.0000001 -4.000001,4.0000001 -3.555555,0 -4,-0.4444444 -4,-4.0000001 z"
     id="path1703" />
  <path
     style="fill:#009b9e;stroke-width:1.33333337"
     d="m 1.3333334,48.000002 c 0,-3.555557 0.4444444,-4.000001 4.0000001,-4.000001 3.5555557,0 4.0000001,0.444444 4.0000001,4.000001 0,3.555556 -0.4444444,4 -4.0000001,4 -3.5555557,0 -4.0000001,-0.444444 -4.0000001,-4 z"
     id="path1669" />
  <path
     style="fill:#3ea425;stroke-width:1.33333337"
     d="m 65.333335,69.333336 c 0,-3.555557 0.444444,-4.000001 4.000001,-4.000001 3.555556,0 4,0.444444 4,4.000001 0,3.555556 -0.444444,4 -4,4 -3.555557,0 -4.000001,-0.444444 -4.000001,-4 z"
     id="path1631" />
  <path
     style="fill:#d31f0c;stroke-width:1.33333337"
     d="m 1.3333334,16 c 0,-3.555555 0.4444444,-4 4.0000001,-4 3.5555557,0 4.0000001,0.444445 4.0000001,4 0,3.555557 -0.4444444,4.000001 -4.0000001,4.000001 -3.5555557,0 -4.0000001,-0.444444 -4.0000001,-4.000001 z"
     id="path1581" />
  <path
     style="fill:#6a127f;stroke-width:1.33333337"
     d="m 1.3333334,37.333334 c 0,-3.555556 0.4444444,-4 4.0000001,-4 3.5555557,0 4.0000001,0.444444 4.0000001,4 0,3.555557 -0.4444444,4.000001 -4.0000001,4.000001 -3.5555557,0 -4.0000001,-0.444444 -4.0000001,-4.000001 z"
     id="path1545" />
  <path
     style="fill:#b12e15;stroke-width:1.33333337"
     d="m 54.666668,5.3333335 c 0,-3.5555557 0.444444,-4.0000001 4,-4.0000001 3.555557,0 4.000001,0.4444444 4.000001,4.0000001 0,3.5555557 -0.444444,4.0000001 -4.000001,4.0000001 -3.555556,0 -4,-0.4444444 -4,-4.0000001 z"
     id="path1495" />
  <path
     style="fill:#9d4510;stroke-width:1.33333337"
     d="m 1.3333334,69.333336 c 0,-3.555557 0.4444444,-4.000001 4.0000001,-4.000001 3.5555557,0 4.0000001,0.444444 4.0000001,4.000001 0,3.555556 -0.4444444,4 -4.0000001,4 -3.5555557,0 -4.0000001,-0.444444 -4.0000001,-4 z"
     id="path1477" />
  <path
     style="fill:#2324a3;stroke-width:1.33333337"
     d="m 44.000001,5.3333335 c 0,-3.5555557 0.444444,-4.0000001 4.000001,-4.0000001 3.555556,0 4,0.4444444 4,4.0000001 0,3.5555557 -0.444444,4.0000001 -4,4.0000001 -3.555557,0 -4.000001,-0.4444444 -4.000001,-4.0000001 z"
     id="path1429" />
  <path
     style="fill:#035c75;stroke-width:1.33333337"
     d="m 33.333334,5.3333335 c 0,-3.5555557 0.444444,-4.0000001 4,-4.0000001 3.555557,0 4.000001,0.4444444 4.000001,4.0000001 0,3.5555557 -0.444444,4.0000001 -4.000001,4.0000001 -3.555556,0 -4,-0.4444444 -4,-4.0000001 z"
     id="path1399" />
  <path
     style="fill:#5a7600;stroke-width:1.33333337"
     d="m 12,80.000003 c 0,-3.555557 0.444445,-4.000001 4,-4.000001 3.555557,0 4.000001,0.444444 4.000001,4.000001 0,3.555556 -0.444444,4 -4.000001,4 -3.555555,0 -4,-0.444444 -4,-4 z"
     id="path1393" />
  <path
     style="fill:#3b1082;stroke-width:1.33333337"
     d="m 76.000002,37.333334 c 0,-3.555556 0.444444,-4 4.000001,-4 3.555556,0 4,0.444444 4,4 0,3.555557 -0.444444,4.000001 -4,4.000001 -3.555557,0 -4.000001,-0.444444 -4.000001,-4.000001 z"
     id="path1351" />
  <path
     style="fill:#1b3577;stroke-width:1.33333337"
     d="m 1.3333334,58.666668 c 0,-3.555556 0.4444444,-4 4.0000001,-4 3.5555557,0 4.0000001,0.444444 4.0000001,4 0,3.555557 -0.4444444,4.000001 -4.0000001,4.000001 -3.5555557,0 -4.0000001,-0.444444 -4.0000001,-4.000001 z"
     id="path1329" />
  <path
     style="fill:#6f004a;stroke-width:1.33333337"
     d="m 76.000002,80.000003 c 0,-3.555557 0.444444,-4.000001 4.000001,-4.000001 3.555556,0 4,0.444444 4,4.000001 0,3.555556 -0.444444,4 -4,4 -3.555557,0 -4.000001,-0.444444 -4.000001,-4 z"
     id="path1307" />
  <path
     style="fill:#6f004a;stroke-width:1.33333337"
     d="m 1.3333334,5.3333335 c 0,-3.5555557 0.4444444,-4.0000001 4.0000001,-4.0000001 3.5555557,0 4.0000001,0.4444444 4.0000001,4.0000001 0,3.5555557 -0.4444444,4.0000001 -4.0000001,4.0000001 -3.5555557,0 -4.0000001,-0.4444444 -4.0000001,-4.0000001 z"
     id="path1301" />
  <path
     style="fill:#006356;stroke-width:1.33333337"
     d="m 65.333335,80.000003 c 0,-3.555557 0.444444,-4.000001 4.000001,-4.000001 3.555556,0 4,0.444444 4,4.000001 0,3.555556 -0.444444,4 -4,4 -3.555557,0 -4.000001,-0.444444 -4.000001,-4 z"
     id="path1287" />
  <path
     style="fill:#4f4a03;stroke-width:1.33333337"
     d="m 54.666668,80.000003 c 0,-3.555557 0.444444,-4.000001 4,-4.000001 3.555557,0 4.000001,0.444444 4.000001,4.000001 0,3.555556 -0.444444,4 -4.000001,4 -3.555556,0 -4,-0.444444 -4,-4 z"
     id="path1271" />
  <path
     style="fill:#4f4a03;stroke-width:1.33333337"
     d="m 76.000002,58.666668 c 0,-3.555556 0.444444,-4 4.000001,-4 3.555556,0 4,0.444444 4,4 0,3.555557 -0.444444,4.000001 -4,4.000001 -3.555557,0 -4.000001,-0.444444 -4.000001,-4.000001 z"
     id="path1269" />
  <path
     style="fill:#6f2009;stroke-width:1.33333337"
     d="m 33.333334,80.000003 c 0,-3.555557 0.444444,-4.000001 4,-4.000001 3.555557,0 4.000001,0.444444 4.000001,4.000001 0,3.555556 -0.444444,4 -4.000001,4 -3.555556,0 -4,-0.444444 -4,-4 z"
     id="path1259" />
  <path
     style="fill:#5c2701;stroke-width:1.33333337"
     d="m 22.666667,5.3333335 c 0,-3.5555557 0.444444,-4.0000001 4.000001,-4.0000001 3.555556,0 4,0.4444444 4,4.0000001 0,3.5555557 -0.444444,4.0000001 -4,4.0000001 -3.555557,0 -4.000001,-0.4444444 -4.000001,-4.0000001 z"
     id="path1243" />
  <path
     style="fill:#4c0130;stroke-width:1.33333337"
     d="m 76.000002,5.3333335 c 0,-3.5555557 0.444444,-4.0000001 4.000001,-4.0000001 3.555556,0 4,0.4444444 4,4.0000001 0,3.5555557 -0.444444,4.0000001 -4,4.0000001 -3.555557,0 -4.000001,-0.4444444 -4.000001,-4.0000001 z"
     id="path1044" />
  <path
     style="fill:#0f6a02;stroke-width:1.33333337"
     d="m 44.000001,80.000003 c 0,-3.555557 0.444444,-4.000001 4.000001,-4.000001 3.555556,0 4,0.444444 4,4.000001 0,3.555556 -0.444444,4 -4,4 -3.555557,0 -4.000001,-0.444444 -4.000001,-4 z"
     id="path1229" />
  <path
     style="fill:#1a4900;stroke-width:1.33333337"
     d="m 76.000002,16 c 0,-3.555555 0.444444,-4 4.000001,-4 3.555556,0 4,0.444445 4,4 0,3.555557 -0.444444,4.000001 -4,4.000001 -3.555557,0 -4.000001,-0.444444 -4.000001,-4.000001 z"
     id="path1040" />
  <path
     style="fill:#441a02;stroke-width:1.33333337"
     d="m 1.3333334,80.000003 c 0,-3.555557 0.4444444,-4.000001 4.0000001,-4.000001 3.5555557,0 4.0000001,0.444444 4.0000001,4.000001 0,3.555556 -0.4444444,4 -4.0000001,4 -3.5555557,0 -4.0000001,-0.444444 -4.0000001,-4 z"
     id="path1038" />
</svg>
