<?xml version="1.0" encoding="UTF-8" standalone="no"?>
<!-- Created with Inkscape (http://www.inkscape.org/) -->

<svg
   xmlns:dc="http://purl.org/dc/elements/1.1/"
   xmlns:cc="http://creativecommons.org/ns#"
   xmlns:rdf="http://www.w3.org/1999/02/22-rdf-syntax-ns#"
   xmlns:svg="http://www.w3.org/2000/svg"
   xmlns="http://www.w3.org/2000/svg"
   xmlns:sodipodi="http://sodipodi.sourceforge.net/DTD/sodipodi-0.dtd"
   xmlns:inkscape="http://www.inkscape.org/namespaces/inkscape"
   version="1.1"
   id="svg2"
   width="85.333336"
   height="85.333336"
   viewBox="0 0 85.333336 85.333336"
   sodipodi:docname="highcontrast.svg"
   inkscape:version="0.92.3 (2405546, 2018-03-11)">
  <title
     id="title820">Hicontrast software logo</title>
  <metadata
     id="metadata8">
    <rdf:RDF>
      <cc:Work
         rdf:about="">
        <dc:format>image/svg+xml</dc:format>
        <dc:type
           rdf:resource="http://purl.org/dc/dcmitype/StillImage" />
        <dc:title>Hicontrast software logo</dc:title>
        <cc:license
           rdf:resource="http://creativecommons.org/publicdomain/zero/1.0/" />
        <dc:date>2019</dc:date>
        <dc:creator>
          <cc:Agent>
            <dc:title>N-z0</dc:title>
          </cc:Agent>
        </dc:creator>
        <dc:rights>
          <cc:Agent>
            <dc:title>public domain cc0 license</dc:title>
          </cc:Agent>
        </dc:rights>
        <dc:publisher>
          <cc:Agent>
            <dc:title>github.com</dc:title>
          </cc:Agent>
        </dc:publisher>
        <dc:identifier>33d639371bb46eab7ad70ddaa8132f2b</dc:identifier>
        <dc:source>logo.svg</dc:source>
        <dc:subject>
          <rdf:Bag>
            <rdf:li>software logo badge icon</rdf:li>
          </rdf:Bag>
        </dc:subject>
        <dc:coverage>universal</dc:coverage>
        <dc:description>High contrasted logo icon for lambda software.</dc:description>
      </cc:Work>
      <cc:License
         rdf:about="http://creativecommons.org/publicdomain/zero/1.0/">
        <cc:permits
           rdf:resource="http://creativecommons.org/ns#Reproduction" />
        <cc:permits
           rdf:resource="http://creativecommons.org/ns#Distribution" />
        <cc:permits
           rdf:resource="http://creativecommons.org/ns#DerivativeWorks" />
      </cc:License>
    </rdf:RDF>
  </metadata>
  <defs
     id="defs6" />
  <sodipodi:namedview
     pagecolor="#ffffff"
     bordercolor="#666666"
     borderopacity="1"
     objecttolerance="10"
     gridtolerance="10"
     guidetolerance="10"
     inkscape:pageopacity="0"
     inkscape:pageshadow="2"
     inkscape:window-width="1266"
     inkscape:window-height="600"
     id="namedview4"
     showgrid="false"
     inkscape:zoom="3.9111843"
     inkscape:cx="-26.997908"
     inkscape:cy="51.350869"
     inkscape:window-x="0"
     inkscape:window-y="31"
     inkscape:window-maximized="0"
     inkscape:current-layer="svg2" />
  <g
     id="g4538">
    <path
       style="fill:#fefefe;stroke-width:1.33333337"
       d="m 1.3333334,80.000003 c 0,-3.555557 0.4444444,-4.000001 4.0000001,-4.000001 3.5555557,0 4.0000001,0.444444 4.0000001,4.000001 0,3.555556 -0.4444444,4 -4.0000001,4 -3.5555557,0 -4.0000001,-0.444444 -4.0000001,-4 z m 10.6666666,0 c 0,-3.555557 0.444445,-4.000001 4,-4.000001 3.555557,0 4.000001,0.444444 4.000001,4.000001 0,3.555556 -0.444444,4 -4.000001,4 -3.555555,0 -4,-0.444444 -4,-4 z m 10.666667,0 c 0,-3.555557 0.444444,-4.000001 4.000001,-4.000001 3.555556,0 4,0.444444 4,4.000001 0,3.555556 -0.444444,4 -4,4 -3.555557,0 -4.000001,-0.444444 -4.000001,-4 z m 10.666667,0 c 0,-3.555557 0.444444,-4.000001 4,-4.000001 3.555557,0 4.000001,0.444444 4.000001,4.000001 0,3.555556 -0.444444,4 -4.000001,4 -3.555556,0 -4,-0.444444 -4,-4 z m 10.666667,0 c 0,-3.555557 0.444444,-4.000001 4.000001,-4.000001 3.555556,0 4,0.444444 4,4.000001 0,3.555556 -0.444444,4 -4,4 -3.555557,0 -4.000001,-0.444444 -4.000001,-4 z m 10.666667,0 c 0,-3.555557 0.444444,-4.000001 4,-4.000001 3.555557,0 4.000001,0.444444 4.000001,4.000001 0,3.555556 -0.444444,4 -4.000001,4 -3.555556,0 -4,-0.444444 -4,-4 z m 10.666667,0 c 0,-3.555557 0.444444,-4.000001 4.000001,-4.000001 3.555556,0 4,0.444444 4,4.000001 0,3.555556 -0.444444,4 -4,4 -3.555557,0 -4.000001,-0.444444 -4.000001,-4 z m 10.666667,0 c 0,-3.555557 0.444444,-4.000001 4.000001,-4.000001 3.555556,0 4,0.444444 4,4.000001 0,3.555556 -0.444444,4 -4,4 -3.555557,0 -4.000001,-0.444444 -4.000001,-4 z M 1.3333334,69.333336 c 0,-3.555557 0.4444444,-4.000001 4.0000001,-4.000001 3.5555557,0 4.0000001,0.444444 4.0000001,4.000001 0,3.555556 -0.4444444,4 -4.0000001,4 -3.5555557,0 -4.0000001,-0.444444 -4.0000001,-4 z m 10.6666666,0 c 0,-3.555557 0.444445,-4.000001 4,-4.000001 3.555557,0 4.000001,0.444444 4.000001,4.000001 0,3.555556 -0.444444,4 -4.000001,4 -3.555555,0 -4,-0.444444 -4,-4 z m 10.666667,0 c 0,-3.555557 0.444444,-4.000001 4.000001,-4.000001 3.555556,0 4,0.444444 4,4.000001 0,3.555556 -0.444444,4 -4,4 -3.555557,0 -4.000001,-0.444444 -4.000001,-4 z m 10.666667,0 c 0,-3.555557 0.444444,-4.000001 4,-4.000001 3.555557,0 4.000001,0.444444 4.000001,4.000001 0,3.555556 -0.444444,4 -4.000001,4 -3.555556,0 -4,-0.444444 -4,-4 z m 10.666667,0 c 0,-3.555557 0.444444,-4.000001 4.000001,-4.000001 3.555556,0 4,0.444444 4,4.000001 0,3.555556 -0.444444,4 -4,4 -3.555557,0 -4.000001,-0.444444 -4.000001,-4 z m 10.666667,0 c 0,-3.555557 0.444444,-4.000001 4,-4.000001 3.555557,0 4.000001,0.444444 4.000001,4.000001 0,3.555556 -0.444444,4 -4.000001,4 -3.555556,0 -4,-0.444444 -4,-4 z m 10.666667,0 c 0,-3.555557 0.444444,-4.000001 4.000001,-4.000001 3.555556,0 4,0.444444 4,4.000001 0,3.555556 -0.444444,4 -4,4 -3.555557,0 -4.000001,-0.444444 -4.000001,-4 z m 10.666667,0 c 0,-3.555557 0.444444,-4.000001 4.000001,-4.000001 3.555556,0 4,0.444444 4,4.000001 0,3.555556 -0.444444,4 -4,4 -3.555557,0 -4.000001,-0.444444 -4.000001,-4 z M 1.3333334,58.666668 c 0,-3.555556 0.4444444,-4 4.0000001,-4 3.5555557,0 4.0000001,0.444444 4.0000001,4 0,3.555557 -0.4444444,4.000001 -4.0000001,4.000001 -3.5555557,0 -4.0000001,-0.444444 -4.0000001,-4.000001 z m 10.6666666,0 c 0,-3.555556 0.444445,-4 4,-4 3.555557,0 4.000001,0.444444 4.000001,4 0,3.555557 -0.444444,4.000001 -4.000001,4.000001 -3.555555,0 -4,-0.444444 -4,-4.000001 z m 10.666667,0 c 0,-3.555556 0.444444,-4 4.000001,-4 3.555556,0 4,0.444444 4,4 0,3.555557 -0.444444,4.000001 -4,4.000001 -3.555557,0 -4.000001,-0.444444 -4.000001,-4.000001 z m 10.666667,0 c 0,-3.555556 0.444444,-4 4,-4 3.555557,0 4.000001,0.444444 4.000001,4 0,3.555557 -0.444444,4.000001 -4.000001,4.000001 -3.555556,0 -4,-0.444444 -4,-4.000001 z m 10.666667,0 c 0,-3.555556 0.444444,-4 4.000001,-4 3.555556,0 4,0.444444 4,4 0,3.555557 -0.444444,4.000001 -4,4.000001 -3.555557,0 -4.000001,-0.444444 -4.000001,-4.000001 z m 10.666667,0 c 0,-3.555556 0.444444,-4 4,-4 3.555557,0 4.000001,0.444444 4.000001,4 0,3.555557 -0.444444,4.000001 -4.000001,4.000001 -3.555556,0 -4,-0.444444 -4,-4.000001 z m 10.666667,0 c 0,-3.555556 0.444444,-4 4.000001,-4 3.555556,0 4,0.444444 4,4 0,3.555557 -0.444444,4.000001 -4,4.000001 -3.555557,0 -4.000001,-0.444444 -4.000001,-4.000001 z m 10.666667,0 c 0,-3.555556 0.444444,-4 4.000001,-4 3.555556,0 4,0.444444 4,4 0,3.555557 -0.444444,4.000001 -4,4.000001 -3.555557,0 -4.000001,-0.444444 -4.000001,-4.000001 z M 1.3333334,48.000002 c 0,-3.555557 0.4444444,-4.000001 4.0000001,-4.000001 3.5555557,0 4.0000001,0.444444 4.0000001,4.000001 0,3.555556 -0.4444444,4 -4.0000001,4 -3.5555557,0 -4.0000001,-0.444444 -4.0000001,-4 z m 10.6666666,0 c 0,-3.555557 0.444445,-4.000001 4,-4.000001 3.555557,0 4.000001,0.444444 4.000001,4.000001 0,3.555556 -0.444444,4 -4.000001,4 -3.555555,0 -4,-0.444444 -4,-4 z m 10.666667,0 c 0,-3.555557 0.444444,-4.000001 4.000001,-4.000001 3.555556,0 4,0.444444 4,4.000001 0,3.555556 -0.444444,4 -4,4 -3.555557,0 -4.000001,-0.444444 -4.000001,-4 z m 10.666667,0 c 0,-3.555557 0.444444,-4.000001 4,-4.000001 3.555557,0 4.000001,0.444444 4.000001,4.000001 0,3.555556 -0.444444,4 -4.000001,4 -3.555556,0 -4,-0.444444 -4,-4 z m 10.666667,0 c 0,-3.555557 0.444444,-4.000001 4.000001,-4.000001 3.555556,0 4,0.444444 4,4.000001 0,3.555556 -0.444444,4 -4,4 -3.555557,0 -4.000001,-0.444444 -4.000001,-4 z m 10.666667,0 c 0,-3.555557 0.444444,-4.000001 4,-4.000001 3.555557,0 4.000001,0.444444 4.000001,4.000001 0,3.555556 -0.444444,4 -4.000001,4 -3.555556,0 -4,-0.444444 -4,-4 z m 10.666667,0 c 0,-3.555557 0.444444,-4.000001 4.000001,-4.000001 3.555556,0 4,0.444444 4,4.000001 0,3.555556 -0.444444,4 -4,4 -3.555557,0 -4.000001,-0.444444 -4.000001,-4 z m 10.666667,0 c 0,-3.555557 0.444444,-4.000001 4.000001,-4.000001 3.555556,0 4,0.444444 4,4.000001 0,3.555556 -0.444444,4 -4,4 -3.555557,0 -4.000001,-0.444444 -4.000001,-4 z M 1.3333334,37.333334 c 0,-3.555556 0.4444444,-4 4.0000001,-4 3.5555557,0 4.0000001,0.444444 4.0000001,4 0,3.555557 -0.4444444,4.000001 -4.0000001,4.000001 -3.5555557,0 -4.0000001,-0.444444 -4.0000001,-4.000001 z m 10.6666666,0 c 0,-3.555556 0.444445,-4 4,-4 3.555557,0 4.000001,0.444444 4.000001,4 0,3.555557 -0.444444,4.000001 -4.000001,4.000001 -3.555555,0 -4,-0.444444 -4,-4.000001 z m 10.666667,0 c 0,-3.555556 0.444444,-4 4.000001,-4 3.555556,0 4,0.444444 4,4 0,3.555557 -0.444444,4.000001 -4,4.000001 -3.555557,0 -4.000001,-0.444444 -4.000001,-4.000001 z m 10.666667,0 c 0,-3.555556 0.444444,-4 4,-4 3.555557,0 4.000001,0.444444 4.000001,4 0,3.555557 -0.444444,4.000001 -4.000001,4.000001 -3.555556,0 -4,-0.444444 -4,-4.000001 z m 10.666667,0 c 0,-3.555556 0.444444,-4 4.000001,-4 3.555556,0 4,0.444444 4,4 0,3.555557 -0.444444,4.000001 -4,4.000001 -3.555557,0 -4.000001,-0.444444 -4.000001,-4.000001 z m 10.666667,0 c 0,-3.555556 0.444444,-4 4,-4 3.555557,0 4.000001,0.444444 4.000001,4 0,3.555557 -0.444444,4.000001 -4.000001,4.000001 -3.555556,0 -4,-0.444444 -4,-4.000001 z m 10.666667,0 c 0,-3.555556 0.444444,-4 4.000001,-4 3.555556,0 4,0.444444 4,4 0,3.555557 -0.444444,4.000001 -4,4.000001 -3.555557,0 -4.000001,-0.444444 -4.000001,-4.000001 z m 10.666667,0 c 0,-3.555556 0.444444,-4 4.000001,-4 3.555556,0 4,0.444444 4,4 0,3.555557 -0.444444,4.000001 -4,4.000001 -3.555557,0 -4.000001,-0.444444 -4.000001,-4.000001 z M 1.3333334,26.666668 c 0,-3.555557 0.4444444,-4.000001 4.0000001,-4.000001 3.5555557,0 4.0000001,0.444444 4.0000001,4.000001 0,3.555556 -0.4444444,4 -4.0000001,4 -3.5555557,0 -4.0000001,-0.444444 -4.0000001,-4 z m 10.6666666,0 c 0,-3.555557 0.444445,-4.000001 4,-4.000001 3.555557,0 4.000001,0.444444 4.000001,4.000001 0,3.555556 -0.444444,4 -4.000001,4 -3.555555,0 -4,-0.444444 -4,-4 z m 10.666667,0 c 0,-3.555557 0.444444,-4.000001 4.000001,-4.000001 3.555556,0 4,0.444444 4,4.000001 0,3.555556 -0.444444,4 -4,4 -3.555557,0 -4.000001,-0.444444 -4.000001,-4 z m 10.666667,0 c 0,-3.555557 0.444444,-4.000001 4,-4.000001 3.555557,0 4.000001,0.444444 4.000001,4.000001 0,3.555556 -0.444444,4 -4.000001,4 -3.555556,0 -4,-0.444444 -4,-4 z m 10.666667,0 c 0,-3.555557 0.444444,-4.000001 4.000001,-4.000001 3.555556,0 4,0.444444 4,4.000001 0,3.555556 -0.444444,4 -4,4 -3.555557,0 -4.000001,-0.444444 -4.000001,-4 z m 10.666667,0 c 0,-3.555557 0.444444,-4.000001 4,-4.000001 3.555557,0 4.000001,0.444444 4.000001,4.000001 0,3.555556 -0.444444,4 -4.000001,4 -3.555556,0 -4,-0.444444 -4,-4 z m 10.666667,0 c 0,-3.555557 0.444444,-4.000001 4.000001,-4.000001 3.555556,0 4,0.444444 4,4.000001 0,3.555556 -0.444444,4 -4,4 -3.555557,0 -4.000001,-0.444444 -4.000001,-4 z m 10.666667,0 c 0,-3.555557 0.444444,-4.000001 4.000001,-4.000001 3.555556,0 4,0.444444 4,4.000001 0,3.555556 -0.444444,4 -4,4 -3.555557,0 -4.000001,-0.444444 -4.000001,-4 z M 1.3333334,16 c 0,-3.555555 0.4444444,-4 4.0000001,-4 3.5555557,0 4.0000001,0.444445 4.0000001,4 0,3.555557 -0.4444444,4.000001 -4.0000001,4.000001 C 1.7777778,20.000001 1.3333334,19.555557 1.3333334,16 Z M 12,16 c 0,-3.555555 0.444445,-4 4,-4 3.555557,0 4.000001,0.444445 4.000001,4 0,3.555557 -0.444444,4.000001 -4.000001,4.000001 -3.555555,0 -4,-0.444444 -4,-4.000001 z m 10.666667,0 c 0,-3.555555 0.444444,-4 4.000001,-4 3.555556,0 4,0.444445 4,4 0,3.555557 -0.444444,4.000001 -4,4.000001 -3.555557,0 -4.000001,-0.444444 -4.000001,-4.000001 z m 10.666667,0 c 0,-3.555555 0.444444,-4 4,-4 3.555557,0 4.000001,0.444445 4.000001,4 0,3.555557 -0.444444,4.000001 -4.000001,4.000001 -3.555556,0 -4,-0.444444 -4,-4.000001 z m 10.666667,0 c 0,-3.555555 0.444444,-4 4.000001,-4 3.555556,0 4,0.444445 4,4 0,3.555557 -0.444444,4.000001 -4,4.000001 -3.555557,0 -4.000001,-0.444444 -4.000001,-4.000001 z m 10.666667,0 c 0,-3.555555 0.444444,-4 4,-4 3.555557,0 4.000001,0.444445 4.000001,4 0,3.555557 -0.444444,4.000001 -4.000001,4.000001 -3.555556,0 -4,-0.444444 -4,-4.000001 z m 10.666667,0 c 0,-3.555555 0.444444,-4 4.000001,-4 3.555556,0 4,0.444445 4,4 0,3.555557 -0.444444,4.000001 -4,4.000001 -3.555557,0 -4.000001,-0.444444 -4.000001,-4.000001 z m 10.666667,0 c 0,-3.555555 0.444444,-4 4.000001,-4 3.555556,0 4,0.444445 4,4 0,3.555557 -0.444444,4.000001 -4,4.000001 -3.555557,0 -4.000001,-0.444444 -4.000001,-4.000001 z M 1.3333334,5.3333335 c 0,-3.5555557 0.4444444,-4.0000001 4.0000001,-4.0000001 3.5555557,0 4.0000001,0.4444444 4.0000001,4.0000001 0,3.5555557 -0.4444444,4.0000001 -4.0000001,4.0000001 -3.5555557,0 -4.0000001,-0.4444444 -4.0000001,-4.0000001 z m 10.6666666,0 c 0,-3.5555557 0.444445,-4.0000001 4,-4.0000001 3.555557,0 4.000001,0.4444444 4.000001,4.0000001 0,3.5555557 -0.444444,4.0000001 -4.000001,4.0000001 -3.555555,0 -4,-0.4444444 -4,-4.0000001 z m 10.666667,0 c 0,-3.5555557 0.444444,-4.0000001 4.000001,-4.0000001 3.555556,0 4,0.4444444 4,4.0000001 0,3.5555557 -0.444444,4.0000001 -4,4.0000001 -3.555557,0 -4.000001,-0.4444444 -4.000001,-4.0000001 z m 10.666667,0 c 0,-3.5555557 0.444444,-4.0000001 4,-4.0000001 3.555557,0 4.000001,0.4444444 4.000001,4.0000001 0,3.5555557 -0.444444,4.0000001 -4.000001,4.0000001 -3.555556,0 -4,-0.4444444 -4,-4.0000001 z m 10.666667,0 c 0,-3.5555557 0.444444,-4.0000001 4.000001,-4.0000001 3.555556,0 4,0.4444444 4,4.0000001 0,3.5555557 -0.444444,4.0000001 -4,4.0000001 -3.555557,0 -4.000001,-0.4444444 -4.000001,-4.0000001 z m 10.666667,0 c 0,-3.5555557 0.444444,-4.0000001 4,-4.0000001 3.555557,0 4.000001,0.4444444 4.000001,4.0000001 0,3.5555557 -0.444444,4.0000001 -4.000001,4.0000001 -3.555556,0 -4,-0.4444444 -4,-4.0000001 z m 10.666667,0 c 0,-3.5555557 0.444444,-4.0000001 4.000001,-4.0000001 3.555556,0 4,0.4444444 4,4.0000001 0,3.5555557 -0.444444,4.0000001 -4,4.0000001 -3.555557,0 -4.000001,-0.4444444 -4.000001,-4.0000001 z m 10.666667,0 c 0,-3.5555557 0.444444,-4.0000001 4.000001,-4.0000001 3.555556,0 4,0.4444444 4,4.0000001 0,3.5555557 -0.444444,4.0000001 -4,4.0000001 -3.555557,0 -4.000001,-0.4444444 -4.000001,-4.0000001 z"
       id="path4554"
       inkscape:connector-curvature="0" />
    <path
       style="fill:#fefe00;stroke-width:1.33333337"
       d="m 1.3333334,80.000003 c 0,-3.555557 0.4444444,-4.000001 4.0000001,-4.000001 3.5555557,0 4.0000001,0.444444 4.0000001,4.000001 0,3.555556 -0.4444444,4 -4.0000001,4 -3.5555557,0 -4.0000001,-0.444444 -4.0000001,-4 z m 10.6666666,0 c 0,-3.555557 0.444445,-4.000001 4,-4.000001 3.555557,0 4.000001,0.444444 4.000001,4.000001 0,3.555556 -0.444444,4 -4.000001,4 -3.555555,0 -4,-0.444444 -4,-4 z m 10.666667,0 c 0,-3.555557 0.444444,-4.000001 4.000001,-4.000001 3.555556,0 4,0.444444 4,4.000001 0,3.555556 -0.444444,4 -4,4 -3.555557,0 -4.000001,-0.444444 -4.000001,-4 z m 10.666667,0 c 0,-3.555557 0.444444,-4.000001 4,-4.000001 3.555557,0 4.000001,0.444444 4.000001,4.000001 0,3.555556 -0.444444,4 -4.000001,4 -3.555556,0 -4,-0.444444 -4,-4 z m 10.666667,0 c 0,-3.555557 0.444444,-4.000001 4.000001,-4.000001 3.555556,0 4,0.444444 4,4.000001 0,3.555556 -0.444444,4 -4,4 -3.555557,0 -4.000001,-0.444444 -4.000001,-4 z m 10.666667,0 c 0,-3.555557 0.444444,-4.000001 4,-4.000001 3.555557,0 4.000001,0.444444 4.000001,4.000001 0,3.555556 -0.444444,4 -4.000001,4 -3.555556,0 -4,-0.444444 -4,-4 z m 10.666667,0 c 0,-3.555557 0.444444,-4.000001 4.000001,-4.000001 3.555556,0 4,0.444444 4,4.000001 0,3.555556 -0.444444,4 -4,4 -3.555557,0 -4.000001,-0.444444 -4.000001,-4 z m 10.666667,0 c 0,-3.555557 0.444444,-4.000001 4.000001,-4.000001 3.555556,0 4,0.444444 4,4.000001 0,3.555556 -0.444444,4 -4,4 -3.555557,0 -4.000001,-0.444444 -4.000001,-4 z M 1.3333334,69.333336 c 0,-3.555557 0.4444444,-4.000001 4.0000001,-4.000001 3.5555557,0 4.0000001,0.444444 4.0000001,4.000001 0,3.555556 -0.4444444,4 -4.0000001,4 -3.5555557,0 -4.0000001,-0.444444 -4.0000001,-4 z m 10.6666666,0 c 0,-3.555557 0.444445,-4.000001 4,-4.000001 3.555557,0 4.000001,0.444444 4.000001,4.000001 0,3.555556 -0.444444,4 -4.000001,4 -3.555555,0 -4,-0.444444 -4,-4 z m 10.666667,0 c 0,-3.555557 0.444444,-4.000001 4.000001,-4.000001 3.555556,0 4,0.444444 4,4.000001 0,3.555556 -0.444444,4 -4,4 -3.555557,0 -4.000001,-0.444444 -4.000001,-4 z m 10.666667,0 c 0,-3.555557 0.444444,-4.000001 4,-4.000001 3.555557,0 4.000001,0.444444 4.000001,4.000001 0,3.555556 -0.444444,4 -4.000001,4 -3.555556,0 -4,-0.444444 -4,-4 z m 21.333334,0 c 0,-3.555557 0.444444,-4.000001 4,-4.000001 3.555557,0 4.000001,0.444444 4.000001,4.000001 0,3.555556 -0.444444,4 -4.000001,4 -3.555556,0 -4,-0.444444 -4,-4 z m 10.666667,0 c 0,-3.555557 0.444444,-4.000001 4.000001,-4.000001 3.555556,0 4,0.444444 4,4.000001 0,3.555556 -0.444444,4 -4,4 -3.555557,0 -4.000001,-0.444444 -4.000001,-4 z m 10.666667,0 c 0,-3.555557 0.444444,-4.000001 4.000001,-4.000001 3.555556,0 4,0.444444 4,4.000001 0,3.555556 -0.444444,4 -4,4 -3.555557,0 -4.000001,-0.444444 -4.000001,-4 z M 1.3333334,58.666668 c 0,-3.555556 0.4444444,-4 4.0000001,-4 3.5555557,0 4.0000001,0.444444 4.0000001,4 0,3.555557 -0.4444444,4.000001 -4.0000001,4.000001 -3.5555557,0 -4.0000001,-0.444444 -4.0000001,-4.000001 z m 10.6666666,0 c 0,-3.555556 0.444445,-4 4,-4 3.555557,0 4.000001,0.444444 4.000001,4 0,3.555557 -0.444444,4.000001 -4.000001,4.000001 -3.555555,0 -4,-0.444444 -4,-4.000001 z m 21.333334,0 c 0,-3.555556 0.444444,-4 4,-4 3.555557,0 4.000001,0.444444 4.000001,4 0,3.555557 -0.444444,4.000001 -4.000001,4.000001 -3.555556,0 -4,-0.444444 -4,-4.000001 z m 32.000001,0 c 0,-3.555556 0.444444,-4 4.000001,-4 3.555556,0 4,0.444444 4,4 0,3.555557 -0.444444,4.000001 -4,4.000001 -3.555557,0 -4.000001,-0.444444 -4.000001,-4.000001 z m 10.666667,0 c 0,-3.555556 0.444444,-4 4.000001,-4 3.555556,0 4,0.444444 4,4 0,3.555557 -0.444444,4.000001 -4,4.000001 -3.555557,0 -4.000001,-0.444444 -4.000001,-4.000001 z M 1.3333334,48.000002 c 0,-3.555557 0.4444444,-4.000001 4.0000001,-4.000001 3.5555557,0 4.0000001,0.444444 4.0000001,4.000001 0,3.555556 -0.4444444,4 -4.0000001,4 -3.5555557,0 -4.0000001,-0.444444 -4.0000001,-4 z m 32.0000006,0 c 0,-3.555557 0.444444,-4.000001 4,-4.000001 3.555557,0 4.000001,0.444444 4.000001,4.000001 0,3.555556 -0.444444,4 -4.000001,4 -3.555556,0 -4,-0.444444 -4,-4 z m 21.333334,0 c 0,-3.555557 0.444444,-4.000001 4,-4.000001 3.555557,0 4.000001,0.444444 4.000001,4.000001 0,3.555556 -0.444444,4 -4.000001,4 -3.555556,0 -4,-0.444444 -4,-4 z m 21.333334,0 c 0,-3.555557 0.444444,-4.000001 4.000001,-4.000001 3.555556,0 4,0.444444 4,4.000001 0,3.555556 -0.444444,4 -4,4 -3.555557,0 -4.000001,-0.444444 -4.000001,-4 z M 1.3333334,37.333334 c 0,-3.555556 0.4444444,-4 4.0000001,-4 3.5555557,0 4.0000001,0.444444 4.0000001,4 0,3.555557 -0.4444444,4.000001 -4.0000001,4.000001 -3.5555557,0 -4.0000001,-0.444444 -4.0000001,-4.000001 z m 10.6666666,0 c 0,-3.555556 0.444445,-4 4,-4 3.555557,0 4.000001,0.444444 4.000001,4 0,3.555557 -0.444444,4.000001 -4.000001,4.000001 -3.555555,0 -4,-0.444444 -4,-4.000001 z m 32.000001,0 c 0,-3.555556 0.444444,-4 4.000001,-4 3.555556,0 4,0.444444 4,4 0,3.555557 -0.444444,4.000001 -4,4.000001 -3.555557,0 -4.000001,-0.444444 -4.000001,-4.000001 z m 21.333334,0 c 0,-3.555556 0.444444,-4 4.000001,-4 3.555556,0 4,0.444444 4,4 0,3.555557 -0.444444,4.000001 -4,4.000001 -3.555557,0 -4.000001,-0.444444 -4.000001,-4.000001 z m 10.666667,0 c 0,-3.555556 0.444444,-4 4.000001,-4 3.555556,0 4,0.444444 4,4 0,3.555557 -0.444444,4.000001 -4,4.000001 -3.555557,0 -4.000001,-0.444444 -4.000001,-4.000001 z M 1.3333334,26.666668 c 0,-3.555557 0.4444444,-4.000001 4.0000001,-4.000001 3.5555557,0 4.0000001,0.444444 4.0000001,4.000001 0,3.555556 -0.4444444,4 -4.0000001,4 -3.5555557,0 -4.0000001,-0.444444 -4.0000001,-4 z m 10.6666666,0 c 0,-3.555557 0.444445,-4.000001 4,-4.000001 3.555557,0 4.000001,0.444444 4.000001,4.000001 0,3.555556 -0.444444,4 -4.000001,4 -3.555555,0 -4,-0.444444 -4,-4 z m 10.666667,0 c 0,-3.555557 0.444444,-4.000001 4.000001,-4.000001 3.555556,0 4,0.444444 4,4.000001 0,3.555556 -0.444444,4 -4,4 -3.555557,0 -4.000001,-0.444444 -4.000001,-4 z m 42.666668,0 c 0,-3.555557 0.444444,-4.000001 4.000001,-4.000001 3.555556,0 4,0.444444 4,4.000001 0,3.555556 -0.444444,4 -4,4 -3.555557,0 -4.000001,-0.444444 -4.000001,-4 z m 10.666667,0 c 0,-3.555557 0.444444,-4.000001 4.000001,-4.000001 3.555556,0 4,0.444444 4,4.000001 0,3.555556 -0.444444,4 -4,4 -3.555557,0 -4.000001,-0.444444 -4.000001,-4 z M 1.3333334,16 c 0,-3.555555 0.4444444,-4 4.0000001,-4 3.5555557,0 4.0000001,0.444445 4.0000001,4 0,3.555557 -0.4444444,4.000001 -4.0000001,4.000001 C 1.7777778,20.000001 1.3333334,19.555557 1.3333334,16 Z M 12,16 c 0,-3.555555 0.444445,-4 4,-4 3.555557,0 4.000001,0.444445 4.000001,4 0,3.555557 -0.444444,4.000001 -4.000001,4.000001 -3.555555,0 -4,-0.444444 -4,-4.000001 z m 10.666667,0 c 0,-3.555555 0.444444,-4 4.000001,-4 3.555556,0 4,0.444445 4,4 0,3.555557 -0.444444,4.000001 -4,4.000001 -3.555557,0 -4.000001,-0.444444 -4.000001,-4.000001 z m 10.666667,0 c 0,-3.555555 0.444444,-4 4,-4 3.555557,0 4.000001,0.444445 4.000001,4 0,3.555557 -0.444444,4.000001 -4.000001,4.000001 -3.555556,0 -4,-0.444444 -4,-4.000001 z m 21.333334,0 c 0,-3.555555 0.444444,-4 4,-4 3.555557,0 4.000001,0.444445 4.000001,4 0,3.555557 -0.444444,4.000001 -4.000001,4.000001 -3.555556,0 -4,-0.444444 -4,-4.000001 z m 10.666667,0 c 0,-3.555555 0.444444,-4 4.000001,-4 3.555556,0 4,0.444445 4,4 0,3.555557 -0.444444,4.000001 -4,4.000001 -3.555557,0 -4.000001,-0.444444 -4.000001,-4.000001 z m 10.666667,0 c 0,-3.555555 0.444444,-4 4.000001,-4 3.555556,0 4,0.444445 4,4 0,3.555557 -0.444444,4.000001 -4,4.000001 -3.555557,0 -4.000001,-0.444444 -4.000001,-4.000001 z M 1.3333334,5.3333335 c 0,-3.5555557 0.4444444,-4.0000001 4.0000001,-4.0000001 3.5555557,0 4.0000001,0.4444444 4.0000001,4.0000001 0,3.5555557 -0.4444444,4.0000001 -4.0000001,4.0000001 -3.5555557,0 -4.0000001,-0.4444444 -4.0000001,-4.0000001 z m 10.6666666,0 c 0,-3.5555557 0.444445,-4.0000001 4,-4.0000001 3.555557,0 4.000001,0.4444444 4.000001,4.0000001 0,3.5555557 -0.444444,4.0000001 -4.000001,4.0000001 -3.555555,0 -4,-0.4444444 -4,-4.0000001 z m 10.666667,0 c 0,-3.5555557 0.444444,-4.0000001 4.000001,-4.0000001 3.555556,0 4,0.4444444 4,4.0000001 0,3.5555557 -0.444444,4.0000001 -4,4.0000001 -3.555557,0 -4.000001,-0.4444444 -4.000001,-4.0000001 z m 10.666667,0 c 0,-3.5555557 0.444444,-4.0000001 4,-4.0000001 3.555557,0 4.000001,0.4444444 4.000001,4.0000001 0,3.5555557 -0.444444,4.0000001 -4.000001,4.0000001 -3.555556,0 -4,-0.4444444 -4,-4.0000001 z m 10.666667,0 c 0,-3.5555557 0.444444,-4.0000001 4.000001,-4.0000001 3.555556,0 4,0.4444444 4,4.0000001 0,3.5555557 -0.444444,4.0000001 -4,4.0000001 -3.555557,0 -4.000001,-0.4444444 -4.000001,-4.0000001 z m 10.666667,0 c 0,-3.5555557 0.444444,-4.0000001 4,-4.0000001 3.555557,0 4.000001,0.4444444 4.000001,4.0000001 0,3.5555557 -0.444444,4.0000001 -4.000001,4.0000001 -3.555556,0 -4,-0.4444444 -4,-4.0000001 z m 10.666667,0 c 0,-3.5555557 0.444444,-4.0000001 4.000001,-4.0000001 3.555556,0 4,0.4444444 4,4.0000001 0,3.5555557 -0.444444,4.0000001 -4,4.0000001 -3.555557,0 -4.000001,-0.4444444 -4.000001,-4.0000001 z m 10.666667,0 c 0,-3.5555557 0.444444,-4.0000001 4.000001,-4.0000001 3.555556,0 4,0.4444444 4,4.0000001 0,3.5555557 -0.444444,4.0000001 -4,4.0000001 -3.555557,0 -4.000001,-0.4444444 -4.000001,-4.0000001 z"
       id="path4552"
       inkscape:connector-curvature="0" />
    <path
       style="fill:#fe00fe;stroke-width:1.33333337"
       d="m 1.3333334,80.000003 c 0,-3.555557 0.4444444,-4.000001 4.0000001,-4.000001 3.5555557,0 4.0000001,0.444444 4.0000001,4.000001 0,3.555556 -0.4444444,4 -4.0000001,4 -3.5555557,0 -4.0000001,-0.444444 -4.0000001,-4 z m 10.6666666,0 c 0,-3.555557 0.444445,-4.000001 4,-4.000001 3.555557,0 4.000001,0.444444 4.000001,4.000001 0,3.555556 -0.444444,4 -4.000001,4 -3.555555,0 -4,-0.444444 -4,-4 z m 10.666667,0 c 0,-3.555557 0.444444,-4.000001 4.000001,-4.000001 3.555556,0 4,0.444444 4,4.000001 0,3.555556 -0.444444,4 -4,4 -3.555557,0 -4.000001,-0.444444 -4.000001,-4 z m 10.666667,0 c 0,-3.555557 0.444444,-4.000001 4,-4.000001 3.555557,0 4.000001,0.444444 4.000001,4.000001 0,3.555556 -0.444444,4 -4.000001,4 -3.555556,0 -4,-0.444444 -4,-4 z m 10.666667,0 c 0,-3.555557 0.444444,-4.000001 4.000001,-4.000001 3.555556,0 4,0.444444 4,4.000001 0,3.555556 -0.444444,4 -4,4 -3.555557,0 -4.000001,-0.444444 -4.000001,-4 z m 10.666667,0 c 0,-3.555557 0.444444,-4.000001 4,-4.000001 3.555557,0 4.000001,0.444444 4.000001,4.000001 0,3.555556 -0.444444,4 -4.000001,4 -3.555556,0 -4,-0.444444 -4,-4 z m 10.666667,0 c 0,-3.555557 0.444444,-4.000001 4.000001,-4.000001 3.555556,0 4,0.444444 4,4.000001 0,3.555556 -0.444444,4 -4,4 -3.555557,0 -4.000001,-0.444444 -4.000001,-4 z m 10.666667,0 c 0,-3.555557 0.444444,-4.000001 4.000001,-4.000001 3.555556,0 4,0.444444 4,4.000001 0,3.555556 -0.444444,4 -4,4 -3.555557,0 -4.000001,-0.444444 -4.000001,-4 z M 1.3333334,69.333336 c 0,-3.555557 0.4444444,-4.000001 4.0000001,-4.000001 3.5555557,0 4.0000001,0.444444 4.0000001,4.000001 0,3.555556 -0.4444444,4 -4.0000001,4 -3.5555557,0 -4.0000001,-0.444444 -4.0000001,-4 z m 10.6666666,0 c 0,-3.555557 0.444445,-4.000001 4,-4.000001 3.555557,0 4.000001,0.444444 4.000001,4.000001 0,3.555556 -0.444444,4 -4.000001,4 -3.555555,0 -4,-0.444444 -4,-4 z m 10.666667,0 c 0,-3.555557 0.444444,-4.000001 4.000001,-4.000001 3.555556,0 4,0.444444 4,4.000001 0,3.555556 -0.444444,4 -4,4 -3.555557,0 -4.000001,-0.444444 -4.000001,-4 z m 10.666667,0 c 0,-3.555557 0.444444,-4.000001 4,-4.000001 3.555557,0 4.000001,0.444444 4.000001,4.000001 0,3.555556 -0.444444,4 -4.000001,4 -3.555556,0 -4,-0.444444 -4,-4 z m 21.333334,0 c 0,-3.555557 0.444444,-4.000001 4,-4.000001 3.555557,0 4.000001,0.444444 4.000001,4.000001 0,3.555556 -0.444444,4 -4.000001,4 -3.555556,0 -4,-0.444444 -4,-4 z m 10.666667,0 c 0,-3.555557 0.444444,-4.000001 4.000001,-4.000001 3.555556,0 4,0.444444 4,4.000001 0,3.555556 -0.444444,4 -4,4 -3.555557,0 -4.000001,-0.444444 -4.000001,-4 z m 10.666667,0 c 0,-3.555557 0.444444,-4.000001 4.000001,-4.000001 3.555556,0 4,0.444444 4,4.000001 0,3.555556 -0.444444,4 -4,4 -3.555557,0 -4.000001,-0.444444 -4.000001,-4 z M 1.3333334,58.666668 c 0,-3.555556 0.4444444,-4 4.0000001,-4 3.5555557,0 4.0000001,0.444444 4.0000001,4 0,3.555557 -0.4444444,4.000001 -4.0000001,4.000001 -3.5555557,0 -4.0000001,-0.444444 -4.0000001,-4.000001 z m 10.6666666,0 c 0,-3.555556 0.444445,-4 4,-4 3.555557,0 4.000001,0.444444 4.000001,4 0,3.555557 -0.444444,4.000001 -4.000001,4.000001 -3.555555,0 -4,-0.444444 -4,-4.000001 z m 53.333335,0 c 0,-3.555556 0.444444,-4 4.000001,-4 3.555556,0 4,0.444444 4,4 0,3.555557 -0.444444,4.000001 -4,4.000001 -3.555557,0 -4.000001,-0.444444 -4.000001,-4.000001 z m 10.666667,0 c 0,-3.555556 0.444444,-4 4.000001,-4 3.555556,0 4,0.444444 4,4 0,3.555557 -0.444444,4.000001 -4,4.000001 -3.555557,0 -4.000001,-0.444444 -4.000001,-4.000001 z M 1.3333334,48.000002 c 0,-3.555557 0.4444444,-4.000001 4.0000001,-4.000001 3.5555557,0 4.0000001,0.444444 4.0000001,4.000001 0,3.555556 -0.4444444,4 -4.0000001,4 -3.5555557,0 -4.0000001,-0.444444 -4.0000001,-4 z m 74.6666686,0 c 0,-3.555557 0.444444,-4.000001 4.000001,-4.000001 3.555556,0 4,0.444444 4,4.000001 0,3.555556 -0.444444,4 -4,4 -3.555557,0 -4.000001,-0.444444 -4.000001,-4 z M 1.3333334,37.333334 c 0,-3.555556 0.4444444,-4 4.0000001,-4 3.5555557,0 4.0000001,0.444444 4.0000001,4 0,3.555557 -0.4444444,4.000001 -4.0000001,4.000001 -3.5555557,0 -4.0000001,-0.444444 -4.0000001,-4.000001 z m 74.6666686,0 c 0,-3.555556 0.444444,-4 4.000001,-4 3.555556,0 4,0.444444 4,4 0,3.555557 -0.444444,4.000001 -4,4.000001 -3.555557,0 -4.000001,-0.444444 -4.000001,-4.000001 z M 1.3333334,26.666668 c 0,-3.555557 0.4444444,-4.000001 4.0000001,-4.000001 3.5555557,0 4.0000001,0.444444 4.0000001,4.000001 0,3.555556 -0.4444444,4 -4.0000001,4 -3.5555557,0 -4.0000001,-0.444444 -4.0000001,-4 z m 10.6666666,0 c 0,-3.555557 0.444445,-4.000001 4,-4.000001 3.555557,0 4.000001,0.444444 4.000001,4.000001 0,3.555556 -0.444444,4 -4.000001,4 -3.555555,0 -4,-0.444444 -4,-4 z m 64.000002,0 c 0,-3.555557 0.444444,-4.000001 4.000001,-4.000001 3.555556,0 4,0.444444 4,4.000001 0,3.555556 -0.444444,4 -4,4 -3.555557,0 -4.000001,-0.444444 -4.000001,-4 z M 1.3333334,16 c 0,-3.555555 0.4444444,-4 4.0000001,-4 3.5555557,0 4.0000001,0.444445 4.0000001,4 0,3.555557 -0.4444444,4.000001 -4.0000001,4.000001 C 1.7777778,20.000001 1.3333334,19.555557 1.3333334,16 Z M 12,16 c 0,-3.555555 0.444445,-4 4,-4 3.555557,0 4.000001,0.444445 4.000001,4 0,3.555557 -0.444444,4.000001 -4.000001,4.000001 -3.555555,0 -4,-0.444444 -4,-4.000001 z m 10.666667,0 c 0,-3.555555 0.444444,-4 4.000001,-4 3.555556,0 4,0.444445 4,4 0,3.555557 -0.444444,4.000001 -4,4.000001 -3.555557,0 -4.000001,-0.444444 -4.000001,-4.000001 z m 32.000001,0 c 0,-3.555555 0.444444,-4 4,-4 3.555557,0 4.000001,0.444445 4.000001,4 0,3.555557 -0.444444,4.000001 -4.000001,4.000001 -3.555556,0 -4,-0.444444 -4,-4.000001 z m 10.666667,0 c 0,-3.555555 0.444444,-4 4.000001,-4 3.555556,0 4,0.444445 4,4 0,3.555557 -0.444444,4.000001 -4,4.000001 -3.555557,0 -4.000001,-0.444444 -4.000001,-4.000001 z m 10.666667,0 c 0,-3.555555 0.444444,-4 4.000001,-4 3.555556,0 4,0.444445 4,4 0,3.555557 -0.444444,4.000001 -4,4.000001 -3.555557,0 -4.000001,-0.444444 -4.000001,-4.000001 z M 1.3333334,5.3333335 c 0,-3.5555557 0.4444444,-4.0000001 4.0000001,-4.0000001 3.5555557,0 4.0000001,0.4444444 4.0000001,4.0000001 0,3.5555557 -0.4444444,4.0000001 -4.0000001,4.0000001 -3.5555557,0 -4.0000001,-0.4444444 -4.0000001,-4.0000001 z m 10.6666666,0 c 0,-3.5555557 0.444445,-4.0000001 4,-4.0000001 3.555557,0 4.000001,0.4444444 4.000001,4.0000001 0,3.5555557 -0.444444,4.0000001 -4.000001,4.0000001 -3.555555,0 -4,-0.4444444 -4,-4.0000001 z m 10.666667,0 c 0,-3.5555557 0.444444,-4.0000001 4.000001,-4.0000001 3.555556,0 4,0.4444444 4,4.0000001 0,3.5555557 -0.444444,4.0000001 -4,4.0000001 -3.555557,0 -4.000001,-0.4444444 -4.000001,-4.0000001 z m 10.666667,0 c 0,-3.5555557 0.444444,-4.0000001 4,-4.0000001 3.555557,0 4.000001,0.4444444 4.000001,4.0000001 0,3.5555557 -0.444444,4.0000001 -4.000001,4.0000001 -3.555556,0 -4,-0.4444444 -4,-4.0000001 z m 10.666667,0 c 0,-3.5555557 0.444444,-4.0000001 4.000001,-4.0000001 3.555556,0 4,0.4444444 4,4.0000001 0,3.5555557 -0.444444,4.0000001 -4,4.0000001 -3.555557,0 -4.000001,-0.4444444 -4.000001,-4.0000001 z m 10.666667,0 c 0,-3.5555557 0.444444,-4.0000001 4,-4.0000001 3.555557,0 4.000001,0.4444444 4.000001,4.0000001 0,3.5555557 -0.444444,4.0000001 -4.000001,4.0000001 -3.555556,0 -4,-0.4444444 -4,-4.0000001 z m 10.666667,0 c 0,-3.5555557 0.444444,-4.0000001 4.000001,-4.0000001 3.555556,0 4,0.4444444 4,4.0000001 0,3.5555557 -0.444444,4.0000001 -4,4.0000001 -3.555557,0 -4.000001,-0.4444444 -4.000001,-4.0000001 z m 10.666667,0 c 0,-3.5555557 0.444444,-4.0000001 4.000001,-4.0000001 3.555556,0 4,0.4444444 4,4.0000001 0,3.5555557 -0.444444,4.0000001 -4,4.0000001 -3.555557,0 -4.000001,-0.4444444 -4.000001,-4.0000001 z"
       id="path4550"
       inkscape:connector-curvature="0" />
    <path
       style="fill:#00fefe;stroke-width:1.33333337"
       d="m 1.3333334,80.000003 c 0,-3.555557 0.4444444,-4.000001 4.0000001,-4.000001 3.5555557,0 4.0000001,0.444444 4.0000001,4.000001 0,3.555556 -0.4444444,4 -4.0000001,4 -3.5555557,0 -4.0000001,-0.444444 -4.0000001,-4 z m 10.6666666,0 c 0,-3.555557 0.444445,-4.000001 4,-4.000001 3.555557,0 4.000001,0.444444 4.000001,4.000001 0,3.555556 -0.444444,4 -4.000001,4 -3.555555,0 -4,-0.444444 -4,-4 z m 10.666667,0 c 0,-3.555557 0.444444,-4.000001 4.000001,-4.000001 3.555556,0 4,0.444444 4,4.000001 0,3.555556 -0.444444,4 -4,4 -3.555557,0 -4.000001,-0.444444 -4.000001,-4 z m 10.666667,0 c 0,-3.555557 0.444444,-4.000001 4,-4.000001 3.555557,0 4.000001,0.444444 4.000001,4.000001 0,3.555556 -0.444444,4 -4.000001,4 -3.555556,0 -4,-0.444444 -4,-4 z m 10.666667,0 c 0,-3.555557 0.444444,-4.000001 4.000001,-4.000001 3.555556,0 4,0.444444 4,4.000001 0,3.555556 -0.444444,4 -4,4 -3.555557,0 -4.000001,-0.444444 -4.000001,-4 z m 10.666667,0 c 0,-3.555557 0.444444,-4.000001 4,-4.000001 3.555557,0 4.000001,0.444444 4.000001,4.000001 0,3.555556 -0.444444,4 -4.000001,4 -3.555556,0 -4,-0.444444 -4,-4 z m 10.666667,0 c 0,-3.555557 0.444444,-4.000001 4.000001,-4.000001 3.555556,0 4,0.444444 4,4.000001 0,3.555556 -0.444444,4 -4,4 -3.555557,0 -4.000001,-0.444444 -4.000001,-4 z m 10.666667,0 c 0,-3.555557 0.444444,-4.000001 4.000001,-4.000001 3.555556,0 4,0.444444 4,4.000001 0,3.555556 -0.444444,4 -4,4 -3.555557,0 -4.000001,-0.444444 -4.000001,-4 z M 1.3333334,69.333336 c 0,-3.555557 0.4444444,-4.000001 4.0000001,-4.000001 3.5555557,0 4.0000001,0.444444 4.0000001,4.000001 0,3.555556 -0.4444444,4 -4.0000001,4 -3.5555557,0 -4.0000001,-0.444444 -4.0000001,-4 z m 10.6666666,0 c 0,-3.555557 0.444445,-4.000001 4,-4.000001 3.555557,0 4.000001,0.444444 4.000001,4.000001 0,3.555556 -0.444444,4 -4.000001,4 -3.555555,0 -4,-0.444444 -4,-4 z m 10.666667,0 c 0,-3.555557 0.444444,-4.000001 4.000001,-4.000001 3.555556,0 4,0.444444 4,4.000001 0,3.555556 -0.444444,4 -4,4 -3.555557,0 -4.000001,-0.444444 -4.000001,-4 z m 10.666667,0 c 0,-3.555557 0.444444,-4.000001 4,-4.000001 3.555557,0 4.000001,0.444444 4.000001,4.000001 0,3.555556 -0.444444,4 -4.000001,4 -3.555556,0 -4,-0.444444 -4,-4 z m 21.333334,0 c 0,-3.555557 0.444444,-4.000001 4,-4.000001 3.555557,0 4.000001,0.444444 4.000001,4.000001 0,3.555556 -0.444444,4 -4.000001,4 -3.555556,0 -4,-0.444444 -4,-4 z m 10.666667,0 c 0,-3.555557 0.444444,-4.000001 4.000001,-4.000001 3.555556,0 4,0.444444 4,4.000001 0,3.555556 -0.444444,4 -4,4 -3.555557,0 -4.000001,-0.444444 -4.000001,-4 z m 10.666667,0 c 0,-3.555557 0.444444,-4.000001 4.000001,-4.000001 3.555556,0 4,0.444444 4,4.000001 0,3.555556 -0.444444,4 -4,4 -3.555557,0 -4.000001,-0.444444 -4.000001,-4 z M 1.3333334,58.666668 c 0,-3.555556 0.4444444,-4 4.0000001,-4 3.5555557,0 4.0000001,0.444444 4.0000001,4 0,3.555557 -0.4444444,4.000001 -4.0000001,4.000001 -3.5555557,0 -4.0000001,-0.444444 -4.0000001,-4.000001 z m 64.0000016,0 c 0,-3.555556 0.444444,-4 4.000001,-4 3.555556,0 4,0.444444 4,4 0,3.555557 -0.444444,4.000001 -4,4.000001 -3.555557,0 -4.000001,-0.444444 -4.000001,-4.000001 z m 10.666667,0 c 0,-3.555556 0.444444,-4 4.000001,-4 3.555556,0 4,0.444444 4,4 0,3.555557 -0.444444,4.000001 -4,4.000001 -3.555557,0 -4.000001,-0.444444 -4.000001,-4.000001 z M 1.3333334,48.000002 c 0,-3.555557 0.4444444,-4.000001 4.0000001,-4.000001 3.5555557,0 4.0000001,0.444444 4.0000001,4.000001 0,3.555556 -0.4444444,4 -4.0000001,4 -3.5555557,0 -4.0000001,-0.444444 -4.0000001,-4 z m 0,-10.666668 c 0,-3.555556 0.4444444,-4 4.0000001,-4 3.5555557,0 4.0000001,0.444444 4.0000001,4 0,3.555557 -0.4444444,4.000001 -4.0000001,4.000001 -3.5555557,0 -4.0000001,-0.444444 -4.0000001,-4.000001 z m 74.6666686,0 c 0,-3.555556 0.444444,-4 4.000001,-4 3.555556,0 4,0.444444 4,4 0,3.555557 -0.444444,4.000001 -4,4.000001 -3.555557,0 -4.000001,-0.444444 -4.000001,-4.000001 z M 1.3333334,26.666668 c 0,-3.555557 0.4444444,-4.000001 4.0000001,-4.000001 3.5555557,0 4.0000001,0.444444 4.0000001,4.000001 0,3.555556 -0.4444444,4 -4.0000001,4 -3.5555557,0 -4.0000001,-0.444444 -4.0000001,-4 z m 10.6666666,0 c 0,-3.555557 0.444445,-4.000001 4,-4.000001 3.555557,0 4.000001,0.444444 4.000001,4.000001 0,3.555556 -0.444444,4 -4.000001,4 -3.555555,0 -4,-0.444444 -4,-4 z m 64.000002,0 c 0,-3.555557 0.444444,-4.000001 4.000001,-4.000001 3.555556,0 4,0.444444 4,4.000001 0,3.555556 -0.444444,4 -4,4 -3.555557,0 -4.000001,-0.444444 -4.000001,-4 z M 1.3333334,16 c 0,-3.555555 0.4444444,-4 4.0000001,-4 3.5555557,0 4.0000001,0.444445 4.0000001,4 0,3.555557 -0.4444444,4.000001 -4.0000001,4.000001 -3.5555557,0 -4.0000001,-0.444444 -4.0000001,-4.000001 z m 21.3333336,0 c 0,-3.555555 0.444444,-4 4.000001,-4 3.555556,0 4,0.444445 4,4 0,3.555557 -0.444444,4.000001 -4,4.000001 -3.555557,0 -4.000001,-0.444444 -4.000001,-4.000001 z m 32.000001,0 c 0,-3.555555 0.444444,-4 4,-4 3.555557,0 4.000001,0.444445 4.000001,4 0,3.555557 -0.444444,4.000001 -4.000001,4.000001 -3.555556,0 -4,-0.444444 -4,-4.000001 z m 10.666667,0 c 0,-3.555555 0.444444,-4 4.000001,-4 3.555556,0 4,0.444445 4,4 0,3.555557 -0.444444,4.000001 -4,4.000001 -3.555557,0 -4.000001,-0.444444 -4.000001,-4.000001 z m 10.666667,0 c 0,-3.555555 0.444444,-4 4.000001,-4 3.555556,0 4,0.444445 4,4 0,3.555557 -0.444444,4.000001 -4,4.000001 -3.555557,0 -4.000001,-0.444444 -4.000001,-4.000001 z M 1.3333334,5.3333335 c 0,-3.5555557 0.4444444,-4.0000001 4.0000001,-4.0000001 3.5555557,0 4.0000001,0.4444444 4.0000001,4.0000001 0,3.5555557 -0.4444444,4.0000001 -4.0000001,4.0000001 -3.5555557,0 -4.0000001,-0.4444444 -4.0000001,-4.0000001 z m 10.6666666,0 c 0,-3.5555557 0.444445,-4.0000001 4,-4.0000001 3.555557,0 4.000001,0.4444444 4.000001,4.0000001 0,3.5555557 -0.444444,4.0000001 -4.000001,4.0000001 -3.555555,0 -4,-0.4444444 -4,-4.0000001 z m 10.666667,0 c 0,-3.5555557 0.444444,-4.0000001 4.000001,-4.0000001 3.555556,0 4,0.4444444 4,4.0000001 0,3.5555557 -0.444444,4.0000001 -4,4.0000001 -3.555557,0 -4.000001,-0.4444444 -4.000001,-4.0000001 z m 10.666667,0 c 0,-3.5555557 0.444444,-4.0000001 4,-4.0000001 3.555557,0 4.000001,0.4444444 4.000001,4.0000001 0,3.5555557 -0.444444,4.0000001 -4.000001,4.0000001 -3.555556,0 -4,-0.4444444 -4,-4.0000001 z m 10.666667,0 c 0,-3.5555557 0.444444,-4.0000001 4.000001,-4.0000001 3.555556,0 4,0.4444444 4,4.0000001 0,3.5555557 -0.444444,4.0000001 -4,4.0000001 -3.555557,0 -4.000001,-0.4444444 -4.000001,-4.0000001 z m 10.666667,0 c 0,-3.5555557 0.444444,-4.0000001 4,-4.0000001 3.555557,0 4.000001,0.4444444 4.000001,4.0000001 0,3.5555557 -0.444444,4.0000001 -4.000001,4.0000001 -3.555556,0 -4,-0.4444444 -4,-4.0000001 z m 21.333334,0 c 0,-3.5555557 0.444444,-4.0000001 4.000001,-4.0000001 3.555556,0 4,0.4444444 4,4.0000001 0,3.5555557 -0.444444,4.0000001 -4,4.0000001 -3.555557,0 -4.000001,-0.4444444 -4.000001,-4.0000001 z"
       id="path4548"
       inkscape:connector-curvature="0" />
    <path
       style="fill:#fe0000;stroke-width:1.33333337"
       d="m 1.3333334,80.000003 c 0,-3.555557 0.4444444,-4.000001 4.0000001,-4.000001 3.5555557,0 4.0000001,0.444444 4.0000001,4.000001 0,3.555556 -0.4444444,4 -4.0000001,4 -3.5555557,0 -4.0000001,-0.444444 -4.0000001,-4 z m 10.6666666,0 c 0,-3.555557 0.444445,-4.000001 4,-4.000001 3.555557,0 4.000001,0.444444 4.000001,4.000001 0,3.555556 -0.444444,4 -4.000001,4 -3.555555,0 -4,-0.444444 -4,-4 z m 10.666667,0 c 0,-3.555557 0.444444,-4.000001 4.000001,-4.000001 3.555556,0 4,0.444444 4,4.000001 0,3.555556 -0.444444,4 -4,4 -3.555557,0 -4.000001,-0.444444 -4.000001,-4 z m 10.666667,0 c 0,-3.555557 0.444444,-4.000001 4,-4.000001 3.555557,0 4.000001,0.444444 4.000001,4.000001 0,3.555556 -0.444444,4 -4.000001,4 -3.555556,0 -4,-0.444444 -4,-4 z m 10.666667,0 c 0,-3.555557 0.444444,-4.000001 4.000001,-4.000001 3.555556,0 4,0.444444 4,4.000001 0,3.555556 -0.444444,4 -4,4 -3.555557,0 -4.000001,-0.444444 -4.000001,-4 z m 10.666667,0 c 0,-3.555557 0.444444,-4.000001 4,-4.000001 3.555557,0 4.000001,0.444444 4.000001,4.000001 0,3.555556 -0.444444,4 -4.000001,4 -3.555556,0 -4,-0.444444 -4,-4 z m 10.666667,0 c 0,-3.555557 0.444444,-4.000001 4.000001,-4.000001 3.555556,0 4,0.444444 4,4.000001 0,3.555556 -0.444444,4 -4,4 -3.555557,0 -4.000001,-0.444444 -4.000001,-4 z m 10.666667,0 c 0,-3.555557 0.444444,-4.000001 4.000001,-4.000001 3.555556,0 4,0.444444 4,4.000001 0,3.555556 -0.444444,4 -4,4 -3.555557,0 -4.000001,-0.444444 -4.000001,-4 z M 1.3333334,69.333336 c 0,-3.555557 0.4444444,-4.000001 4.0000001,-4.000001 3.5555557,0 4.0000001,0.444444 4.0000001,4.000001 0,3.555556 -0.4444444,4 -4.0000001,4 -3.5555557,0 -4.0000001,-0.444444 -4.0000001,-4 z m 21.3333336,0 c 0,-3.555557 0.444444,-4.000001 4.000001,-4.000001 3.555556,0 4,0.444444 4,4.000001 0,3.555556 -0.444444,4 -4,4 -3.555557,0 -4.000001,-0.444444 -4.000001,-4 z m 10.666667,0 c 0,-3.555557 0.444444,-4.000001 4,-4.000001 3.555557,0 4.000001,0.444444 4.000001,4.000001 0,3.555556 -0.444444,4 -4.000001,4 -3.555556,0 -4,-0.444444 -4,-4 z m 21.333334,0 c 0,-3.555557 0.444444,-4.000001 4,-4.000001 3.555557,0 4.000001,0.444444 4.000001,4.000001 0,3.555556 -0.444444,4 -4.000001,4 -3.555556,0 -4,-0.444444 -4,-4 z m 10.666667,0 c 0,-3.555557 0.444444,-4.000001 4.000001,-4.000001 3.555556,0 4,0.444444 4,4.000001 0,3.555556 -0.444444,4 -4,4 -3.555557,0 -4.000001,-0.444444 -4.000001,-4 z m 10.666667,0 c 0,-3.555557 0.444444,-4.000001 4.000001,-4.000001 3.555556,0 4,0.444444 4,4.000001 0,3.555556 -0.444444,4 -4,4 -3.555557,0 -4.000001,-0.444444 -4.000001,-4 z M 1.3333334,58.666668 c 0,-3.555556 0.4444444,-4 4.0000001,-4 3.5555557,0 4.0000001,0.444444 4.0000001,4 0,3.555557 -0.4444444,4.000001 -4.0000001,4.000001 -3.5555557,0 -4.0000001,-0.444444 -4.0000001,-4.000001 z m 74.6666686,0 c 0,-3.555556 0.444444,-4 4.000001,-4 3.555556,0 4,0.444444 4,4 0,3.555557 -0.444444,4.000001 -4,4.000001 -3.555557,0 -4.000001,-0.444444 -4.000001,-4.000001 z M 1.3333334,37.333334 c 0,-3.555556 0.4444444,-4 4.0000001,-4 3.5555557,0 4.0000001,0.444444 4.0000001,4 0,3.555557 -0.4444444,4.000001 -4.0000001,4.000001 -3.5555557,0 -4.0000001,-0.444444 -4.0000001,-4.000001 z m 74.6666686,0 c 0,-3.555556 0.444444,-4 4.000001,-4 3.555556,0 4,0.444444 4,4 0,3.555557 -0.444444,4.000001 -4,4.000001 -3.555557,0 -4.000001,-0.444444 -4.000001,-4.000001 z M 1.3333334,26.666668 c 0,-3.555557 0.4444444,-4.000001 4.0000001,-4.000001 3.5555557,0 4.0000001,0.444444 4.0000001,4.000001 0,3.555556 -0.4444444,4 -4.0000001,4 -3.5555557,0 -4.0000001,-0.444444 -4.0000001,-4 z m 74.6666686,0 c 0,-3.555557 0.444444,-4.000001 4.000001,-4.000001 3.555556,0 4,0.444444 4,4.000001 0,3.555556 -0.444444,4 -4,4 -3.555557,0 -4.000001,-0.444444 -4.000001,-4 z M 1.3333334,16 c 0,-3.555555 0.4444444,-4 4.0000001,-4 3.5555557,0 4.0000001,0.444445 4.0000001,4 0,3.555557 -0.4444444,4.000001 -4.0000001,4.000001 -3.5555557,0 -4.0000001,-0.444444 -4.0000001,-4.000001 z m 64.0000016,0 c 0,-3.555555 0.444444,-4 4.000001,-4 3.555556,0 4,0.444445 4,4 0,3.555557 -0.444444,4.000001 -4,4.000001 -3.555557,0 -4.000001,-0.444444 -4.000001,-4.000001 z m 10.666667,0 c 0,-3.555555 0.444444,-4 4.000001,-4 3.555556,0 4,0.444445 4,4 0,3.555557 -0.444444,4.000001 -4,4.000001 -3.555557,0 -4.000001,-0.444444 -4.000001,-4.000001 z M 1.3333334,5.3333335 c 0,-3.5555557 0.4444444,-4.0000001 4.0000001,-4.0000001 3.5555557,0 4.0000001,0.4444444 4.0000001,4.0000001 0,3.5555557 -0.4444444,4.0000001 -4.0000001,4.0000001 -3.5555557,0 -4.0000001,-0.4444444 -4.0000001,-4.0000001 z m 10.6666666,0 c 0,-3.5555557 0.444445,-4.0000001 4,-4.0000001 3.555557,0 4.000001,0.4444444 4.000001,4.0000001 0,3.5555557 -0.444444,4.0000001 -4.000001,4.0000001 -3.555555,0 -4,-0.4444444 -4,-4.0000001 z m 10.666667,0 c 0,-3.5555557 0.444444,-4.0000001 4.000001,-4.0000001 3.555556,0 4,0.4444444 4,4.0000001 0,3.5555557 -0.444444,4.0000001 -4,4.0000001 -3.555557,0 -4.000001,-0.4444444 -4.000001,-4.0000001 z m 10.666667,0 c 0,-3.5555557 0.444444,-4.0000001 4,-4.0000001 3.555557,0 4.000001,0.4444444 4.000001,4.0000001 0,3.5555557 -0.444444,4.0000001 -4.000001,4.0000001 -3.555556,0 -4,-0.4444444 -4,-4.0000001 z m 10.666667,0 c 0,-3.5555557 0.444444,-4.0000001 4.000001,-4.0000001 3.555556,0 4,0.4444444 4,4.0000001 0,3.5555557 -0.444444,4.0000001 -4,4.0000001 -3.555557,0 -4.000001,-0.4444444 -4.000001,-4.0000001 z m 10.666667,0 c 0,-3.5555557 0.444444,-4.0000001 4,-4.0000001 3.555557,0 4.000001,0.4444444 4.000001,4.0000001 0,3.5555557 -0.444444,4.0000001 -4.000001,4.0000001 -3.555556,0 -4,-0.4444444 -4,-4.0000001 z m 21.333334,0 c 0,-3.5555557 0.444444,-4.0000001 4.000001,-4.0000001 3.555556,0 4,0.4444444 4,4.0000001 0,3.5555557 -0.444444,4.0000001 -4,4.0000001 -3.555557,0 -4.000001,-0.4444444 -4.000001,-4.0000001 z"
       id="path4546"
       inkscape:connector-curvature="0" />
    <path
       style="fill:#00fe00;stroke-width:1.33333337"
       d="m 1.3333334,80.000003 c 0,-3.555557 0.4444444,-4.000001 4.0000001,-4.000001 3.5555557,0 4.0000001,0.444444 4.0000001,4.000001 0,3.555556 -0.4444444,4 -4.0000001,4 -3.5555557,0 -4.0000001,-0.444444 -4.0000001,-4 z m 10.6666666,0 c 0,-3.555557 0.444445,-4.000001 4,-4.000001 3.555557,0 4.000001,0.444444 4.000001,4.000001 0,3.555556 -0.444444,4 -4.000001,4 -3.555555,0 -4,-0.444444 -4,-4 z m 21.333334,0 c 0,-3.555557 0.444444,-4.000001 4,-4.000001 3.555557,0 4.000001,0.444444 4.000001,4.000001 0,3.555556 -0.444444,4 -4.000001,4 -3.555556,0 -4,-0.444444 -4,-4 z m 10.666667,0 c 0,-3.555557 0.444444,-4.000001 4.000001,-4.000001 3.555556,0 4,0.444444 4,4.000001 0,3.555556 -0.444444,4 -4,4 -3.555557,0 -4.000001,-0.444444 -4.000001,-4 z m 10.666667,0 c 0,-3.555557 0.444444,-4.000001 4,-4.000001 3.555557,0 4.000001,0.444444 4.000001,4.000001 0,3.555556 -0.444444,4 -4.000001,4 -3.555556,0 -4,-0.444444 -4,-4 z m 10.666667,0 c 0,-3.555557 0.444444,-4.000001 4.000001,-4.000001 3.555556,0 4,0.444444 4,4.000001 0,3.555556 -0.444444,4 -4,4 -3.555557,0 -4.000001,-0.444444 -4.000001,-4 z m 10.666667,0 c 0,-3.555557 0.444444,-4.000001 4.000001,-4.000001 3.555556,0 4,0.444444 4,4.000001 0,3.555556 -0.444444,4 -4,4 -3.555557,0 -4.000001,-0.444444 -4.000001,-4 z M 22.666667,69.333336 c 0,-3.555557 0.444444,-4.000001 4.000001,-4.000001 3.555556,0 4,0.444444 4,4.000001 0,3.555556 -0.444444,4 -4,4 -3.555557,0 -4.000001,-0.444444 -4.000001,-4 z m 42.666668,0 c 0,-3.555557 0.444444,-4.000001 4.000001,-4.000001 3.555556,0 4,0.444444 4,4.000001 0,3.555556 -0.444444,4 -4,4 -3.555557,0 -4.000001,-0.444444 -4.000001,-4 z m 10.666667,0 c 0,-3.555557 0.444444,-4.000001 4.000001,-4.000001 3.555556,0 4,0.444444 4,4.000001 0,3.555556 -0.444444,4 -4,4 -3.555557,0 -4.000001,-0.444444 -4.000001,-4 z M 1.3333334,58.666668 c 0,-3.555556 0.4444444,-4 4.0000001,-4 3.5555557,0 4.0000001,0.444444 4.0000001,4 0,3.555557 -0.4444444,4.000001 -4.0000001,4.000001 -3.5555557,0 -4.0000001,-0.444444 -4.0000001,-4.000001 z m 74.6666686,0 c 0,-3.555556 0.444444,-4 4.000001,-4 3.555556,0 4,0.444444 4,4 0,3.555557 -0.444444,4.000001 -4,4.000001 -3.555557,0 -4.000001,-0.444444 -4.000001,-4.000001 z M 1.3333334,37.333334 c 0,-3.555556 0.4444444,-4 4.0000001,-4 3.5555557,0 4.0000001,0.444444 4.0000001,4 0,3.555557 -0.4444444,4.000001 -4.0000001,4.000001 -3.5555557,0 -4.0000001,-0.444444 -4.0000001,-4.000001 z m 74.6666686,0 c 0,-3.555556 0.444444,-4 4.000001,-4 3.555556,0 4,0.444444 4,4 0,3.555557 -0.444444,4.000001 -4,4.000001 -3.555557,0 -4.000001,-0.444444 -4.000001,-4.000001 z M 1.3333334,26.666668 c 0,-3.555557 0.4444444,-4.000001 4.0000001,-4.000001 3.5555557,0 4.0000001,0.444444 4.0000001,4.000001 0,3.555556 -0.4444444,4 -4.0000001,4 -3.5555557,0 -4.0000001,-0.444444 -4.0000001,-4 z m 74.6666686,0 c 0,-3.555557 0.444444,-4.000001 4.000001,-4.000001 3.555556,0 4,0.444444 4,4.000001 0,3.555556 -0.444444,4 -4,4 -3.555557,0 -4.000001,-0.444444 -4.000001,-4 z m 0,-10.666668 c 0,-3.555555 0.444444,-4 4.000001,-4 3.555556,0 4,0.444445 4,4 0,3.555557 -0.444444,4.000001 -4,4.000001 -3.555557,0 -4.000001,-0.444444 -4.000001,-4.000001 z M 1.3333334,5.3333335 c 0,-3.5555557 0.4444444,-4.0000001 4.0000001,-4.0000001 3.5555557,0 4.0000001,0.4444444 4.0000001,4.0000001 0,3.5555557 -0.4444444,4.0000001 -4.0000001,4.0000001 -3.5555557,0 -4.0000001,-0.4444444 -4.0000001,-4.0000001 z m 10.6666666,0 c 0,-3.5555557 0.444445,-4.0000001 4,-4.0000001 3.555557,0 4.000001,0.4444444 4.000001,4.0000001 0,3.5555557 -0.444444,4.0000001 -4.000001,4.0000001 -3.555555,0 -4,-0.4444444 -4,-4.0000001 z m 10.666667,0 c 0,-3.5555557 0.444444,-4.0000001 4.000001,-4.0000001 3.555556,0 4,0.4444444 4,4.0000001 0,3.5555557 -0.444444,4.0000001 -4,4.0000001 -3.555557,0 -4.000001,-0.4444444 -4.000001,-4.0000001 z m 10.666667,0 c 0,-3.5555557 0.444444,-4.0000001 4,-4.0000001 3.555557,0 4.000001,0.4444444 4.000001,4.0000001 0,3.5555557 -0.444444,4.0000001 -4.000001,4.0000001 -3.555556,0 -4,-0.4444444 -4,-4.0000001 z m 10.666667,0 c 0,-3.5555557 0.444444,-4.0000001 4.000001,-4.0000001 3.555556,0 4,0.4444444 4,4.0000001 0,3.5555557 -0.444444,4.0000001 -4,4.0000001 -3.555557,0 -4.000001,-0.4444444 -4.000001,-4.0000001 z m 32.000001,0 c 0,-3.5555557 0.444444,-4.0000001 4.000001,-4.0000001 3.555556,0 4,0.4444444 4,4.0000001 0,3.5555557 -0.444444,4.0000001 -4,4.0000001 -3.555557,0 -4.000001,-0.4444444 -4.000001,-4.0000001 z"
       id="path4544"
       inkscape:connector-curvature="0" />
    <path
       style="fill:#0000fe;stroke-width:1.33333337"
       d="m 1.3333334,80.000003 c 0,-3.555557 0.4444444,-4.000001 4.0000001,-4.000001 3.5555557,0 4.0000001,0.444444 4.0000001,4.000001 0,3.555556 -0.4444444,4 -4.0000001,4 -3.5555557,0 -4.0000001,-0.444444 -4.0000001,-4 z m 10.6666666,0 c 0,-3.555557 0.444445,-4.000001 4,-4.000001 3.555557,0 4.000001,0.444444 4.000001,4.000001 0,3.555556 -0.444444,4 -4.000001,4 -3.555555,0 -4,-0.444444 -4,-4 z m 21.333334,0 c 0,-3.555557 0.444444,-4.000001 4,-4.000001 3.555557,0 4.000001,0.444444 4.000001,4.000001 0,3.555556 -0.444444,4 -4.000001,4 -3.555556,0 -4,-0.444444 -4,-4 z m 10.666667,0 c 0,-3.555557 0.444444,-4.000001 4.000001,-4.000001 3.555556,0 4,0.444444 4,4.000001 0,3.555556 -0.444444,4 -4,4 -3.555557,0 -4.000001,-0.444444 -4.000001,-4 z m 10.666667,0 c 0,-3.555557 0.444444,-4.000001 4,-4.000001 3.555557,0 4.000001,0.444444 4.000001,4.000001 0,3.555556 -0.444444,4 -4.000001,4 -3.555556,0 -4,-0.444444 -4,-4 z m 10.666667,0 c 0,-3.555557 0.444444,-4.000001 4.000001,-4.000001 3.555556,0 4,0.444444 4,4.000001 0,3.555556 -0.444444,4 -4,4 -3.555557,0 -4.000001,-0.444444 -4.000001,-4 z m 10.666667,0 c 0,-3.555557 0.444444,-4.000001 4.000001,-4.000001 3.555556,0 4,0.444444 4,4.000001 0,3.555556 -0.444444,4 -4,4 -3.555557,0 -4.000001,-0.444444 -4.000001,-4 z m 0,-10.666667 c 0,-3.555557 0.444444,-4.000001 4.000001,-4.000001 3.555556,0 4,0.444444 4,4.000001 0,3.555556 -0.444444,4 -4,4 -3.555557,0 -4.000001,-0.444444 -4.000001,-4 z M 1.3333334,58.666668 c 0,-3.555556 0.4444444,-4 4.0000001,-4 3.5555557,0 4.0000001,0.444444 4.0000001,4 0,3.555557 -0.4444444,4.000001 -4.0000001,4.000001 -3.5555557,0 -4.0000001,-0.444444 -4.0000001,-4.000001 z m 74.6666686,0 c 0,-3.555556 0.444444,-4 4.000001,-4 3.555556,0 4,0.444444 4,4 0,3.555557 -0.444444,4.000001 -4,4.000001 -3.555557,0 -4.000001,-0.444444 -4.000001,-4.000001 z M 1.3333334,37.333334 c 0,-3.555556 0.4444444,-4 4.0000001,-4 3.5555557,0 4.0000001,0.444444 4.0000001,4 0,3.555557 -0.4444444,4.000001 -4.0000001,4.000001 -3.5555557,0 -4.0000001,-0.444444 -4.0000001,-4.000001 z m 74.6666686,0 c 0,-3.555556 0.444444,-4 4.000001,-4 3.555556,0 4,0.444444 4,4 0,3.555557 -0.444444,4.000001 -4,4.000001 -3.555557,0 -4.000001,-0.444444 -4.000001,-4.000001 z M 1.3333334,26.666668 c 0,-3.555557 0.4444444,-4.000001 4.0000001,-4.000001 3.5555557,0 4.0000001,0.444444 4.0000001,4.000001 0,3.555556 -0.4444444,4 -4.0000001,4 -3.5555557,0 -4.0000001,-0.444444 -4.0000001,-4 z m 74.6666686,0 c 0,-3.555557 0.444444,-4.000001 4.000001,-4.000001 3.555556,0 4,0.444444 4,4.000001 0,3.555556 -0.444444,4 -4,4 -3.555557,0 -4.000001,-0.444444 -4.000001,-4 z m 0,-10.666668 c 0,-3.555555 0.444444,-4 4.000001,-4 3.555556,0 4,0.444445 4,4 0,3.555557 -0.444444,4.000001 -4,4.000001 -3.555557,0 -4.000001,-0.444444 -4.000001,-4.000001 z M 1.3333334,5.3333335 c 0,-3.5555557 0.4444444,-4.0000001 4.0000001,-4.0000001 3.5555557,0 4.0000001,0.4444444 4.0000001,4.0000001 0,3.5555557 -0.4444444,4.0000001 -4.0000001,4.0000001 -3.5555557,0 -4.0000001,-0.4444444 -4.0000001,-4.0000001 z m 10.6666666,0 c 0,-3.5555557 0.444445,-4.0000001 4,-4.0000001 3.555557,0 4.000001,0.4444444 4.000001,4.0000001 0,3.5555557 -0.444444,4.0000001 -4.000001,4.0000001 -3.555555,0 -4,-0.4444444 -4,-4.0000001 z m 10.666667,0 c 0,-3.5555557 0.444444,-4.0000001 4.000001,-4.0000001 3.555556,0 4,0.4444444 4,4.0000001 0,3.5555557 -0.444444,4.0000001 -4,4.0000001 -3.555557,0 -4.000001,-0.4444444 -4.000001,-4.0000001 z m 10.666667,0 c 0,-3.5555557 0.444444,-4.0000001 4,-4.0000001 3.555557,0 4.000001,0.4444444 4.000001,4.0000001 0,3.5555557 -0.444444,4.0000001 -4.000001,4.0000001 -3.555556,0 -4,-0.4444444 -4,-4.0000001 z m 10.666667,0 c 0,-3.5555557 0.444444,-4.0000001 4.000001,-4.0000001 3.555556,0 4,0.4444444 4,4.0000001 0,3.5555557 -0.444444,4.0000001 -4,4.0000001 -3.555557,0 -4.000001,-0.4444444 -4.000001,-4.0000001 z m 32.000001,0 c 0,-3.5555557 0.444444,-4.0000001 4.000001,-4.0000001 3.555556,0 4,0.4444444 4,4.0000001 0,3.5555557 -0.444444,4.0000001 -4,4.0000001 -3.555557,0 -4.000001,-0.4444444 -4.000001,-4.0000001 z"
       id="path4542"
       inkscape:connector-curvature="0" />
    <path
       style="fill:#000000;stroke-width:1.33333337"
       d="m 1.3333334,80.000003 c 0,-3.555557 0.4444444,-4.000001 4.0000001,-4.000001 3.5555557,0 4.0000001,0.444444 4.0000001,4.000001 0,3.555556 -0.4444444,4 -4.0000001,4 -3.5555557,0 -4.0000001,-0.444444 -4.0000001,-4 z m 10.6666666,0 c 0,-3.555557 0.444445,-4.000001 4,-4.000001 3.555557,0 4.000001,0.444444 4.000001,4.000001 0,3.555556 -0.444444,4 -4.000001,4 -3.555555,0 -4,-0.444444 -4,-4 z m 21.333334,0 c 0,-3.555557 0.444444,-4.000001 4,-4.000001 3.555557,0 4.000001,0.444444 4.000001,4.000001 0,3.555556 -0.444444,4 -4.000001,4 -3.555556,0 -4,-0.444444 -4,-4 z m 10.666667,0 c 0,-3.555557 0.444444,-4.000001 4.000001,-4.000001 3.555556,0 4,0.444444 4,4.000001 0,3.555556 -0.444444,4 -4,4 -3.555557,0 -4.000001,-0.444444 -4.000001,-4 z m 10.666667,0 c 0,-3.555557 0.444444,-4.000001 4,-4.000001 3.555557,0 4.000001,0.444444 4.000001,4.000001 0,3.555556 -0.444444,4 -4.000001,4 -3.555556,0 -4,-0.444444 -4,-4 z m 10.666667,0 c 0,-3.555557 0.444444,-4.000001 4.000001,-4.000001 3.555556,0 4,0.444444 4,4.000001 0,3.555556 -0.444444,4 -4,4 -3.555557,0 -4.000001,-0.444444 -4.000001,-4 z m 10.666667,0 c 0,-3.555557 0.444444,-4.000001 4.000001,-4.000001 3.555556,0 4,0.444444 4,4.000001 0,3.555556 -0.444444,4 -4,4 -3.555557,0 -4.000001,-0.444444 -4.000001,-4 z M 1.3333334,58.666668 c 0,-3.555556 0.4444444,-4 4.0000001,-4 3.5555557,0 4.0000001,0.444444 4.0000001,4 0,3.555557 -0.4444444,4.000001 -4.0000001,4.000001 -3.5555557,0 -4.0000001,-0.444444 -4.0000001,-4.000001 z m 74.6666686,0 c 0,-3.555556 0.444444,-4 4.000001,-4 3.555556,0 4,0.444444 4,4 0,3.555557 -0.444444,4.000001 -4,4.000001 -3.555557,0 -4.000001,-0.444444 -4.000001,-4.000001 z m 0,-42.666668 c 0,-3.555555 0.444444,-4 4.000001,-4 3.555556,0 4,0.444445 4,4 0,3.555557 -0.444444,4.000001 -4,4.000001 -3.555557,0 -4.000001,-0.444444 -4.000001,-4.000001 z M 1.3333334,5.3333335 c 0,-3.5555557 0.4444444,-4.0000001 4.0000001,-4.0000001 3.5555557,0 4.0000001,0.4444444 4.0000001,4.0000001 0,3.5555557 -0.4444444,4.0000001 -4.0000001,4.0000001 -3.5555557,0 -4.0000001,-0.4444444 -4.0000001,-4.0000001 z m 21.3333336,0 c 0,-3.5555557 0.444444,-4.0000001 4.000001,-4.0000001 3.555556,0 4,0.4444444 4,4.0000001 0,3.5555557 -0.444444,4.0000001 -4,4.0000001 -3.555557,0 -4.000001,-0.4444444 -4.000001,-4.0000001 z m 10.666667,0 c 0,-3.5555557 0.444444,-4.0000001 4,-4.0000001 3.555557,0 4.000001,0.4444444 4.000001,4.0000001 0,3.5555557 -0.444444,4.0000001 -4.000001,4.0000001 -3.555556,0 -4,-0.4444444 -4,-4.0000001 z m 42.666668,0 c 0,-3.5555557 0.444444,-4.0000001 4.000001,-4.0000001 3.555556,0 4,0.4444444 4,4.0000001 0,3.5555557 -0.444444,4.0000001 -4,4.0000001 -3.555557,0 -4.000001,-0.4444444 -4.000001,-4.0000001 z"
       id="path4540"
       inkscape:connector-curvature="0" />
  </g>
</svg>
